<svg version="1.1" xmlns="http://www.w3.org/2000/svg" xmlns:xlink="http://www.w3.org/1999/xlink" width="342.90143" height="307.76658" viewBox="0,0,342.90143,307.76658"><g transform="translate(-68.67429,-26.23638)"><g data-paper-data="{&quot;isPaintingLayer&quot;:true}" fill-rule="nonzero" stroke="#000000" stroke-linejoin="miter" stroke-miterlimit="10" stroke-dasharray="" stroke-dashoffset="0" style="mix-blend-mode: normal"><g stroke-linecap="butt"><path d="M97.673,219.76222c-7.88685,-4.48889 -22.03161,-14.59761 -27.57468,-31.66074c-2.54205,-5.87618 7.17583,-15.46311 7.17583,-15.46311c0,0 1.31802,8.5793 6.40881,15.6192c4.84305,6.69733 10.48046,11.90649 10.13775,10.63727c-1.80797,-6.69578 -11.25973,-17.91969 -11.83592,-23.75619c-0.81122,-8.21708 11.46721,-12.31954 11.46721,-12.31954c0,0 2.17082,11.14582 4.35309,16.11969c1.99555,4.54829 8.23054,12.56116 8.23054,12.56116c0,0 -10.28506,-18.82019 -5.91375,-25.89543c2.27775,-3.68668 8.98393,-4.94904 8.98393,-4.94904c0,0 10.77949,28.13634 11.24216,28.12712c25.47841,-0.50733 93.85331,-6.94868 120.97669,-8.20933c7.57948,-0.35228 8.71097,2.92668 8.71097,2.92668c0,0 -85.11553,20.22747 -111.19319,29.15338c-5.84994,2.00233 -28.28317,18.75761 -37.76863,21.80594c-6.64904,2.1368 -15.95484,-2.62598 -15.95484,-2.62598c0,0 10.47226,-5.38141 13.7657,-7.07381c1.84352,-0.94734 2.10364,-3.11033 -1.21167,-4.99727z" fill="#282828" stroke-width="2"/><path d="M77.27414,173.13839c0,0 1.31802,8.5793 6.40881,15.6192c4.84305,6.69733 10.48046,11.90649 10.13775,10.63727c6.01811,-2.16125 1.29346,-12.50177 -0.70742,-21.13698c-3.81119,-14.88432 -0.16129,-14.68875 -0.16129,-14.68875c0,0 2.17082,10.89582 4.35309,15.86969c1.34216,3.0591 6.89149,13.12094 8.73054,12.56116c6.63869,-2.02071 6.07852,-4.99138 3.58535,-16.51383c-4.76085,-16.14748 -1.01517,-13.83064 -1.01517,-13.83064c0,0 10.52949,28.38634 10.99216,28.37712c16.99357,-0.33838 66.1832,-4.60793 66.1832,-4.60793c0,0 -77.2877,27.64301 -92.72465,16.64414c-24.30683,-17.3187 -15.78236,-28.93044 -15.78236,-28.93044z" fill="#5a5a5a" stroke-width="0"/></g><path d="M180.44753,293.48487c-19.39147,-0.22806 -31.69817,-6.98656 -31.69817,-6.98656c0,0 18.39924,-5.17714 20.52946,-14.16017c5.27436,-22.24165 -38.72359,-40.38182 -0.42536,-55.51784c43.75455,-17.29243 56.85257,29.48149 56.85257,29.48149c0,0 -19.39486,-19.3222 -35.79602,-5.19052c-5.67271,4.88775 13.907,25.68257 13.35447,39.4825c-0.31914,7.9706 -19.49228,12.93021 -22.81695,12.8911z" fill="#282828" stroke-width="2.5" stroke-linecap="butt"/><path d="M230.13134,242.99973c5.08763,-3.531 12.49621,-11.27815 11.64753,-26.15732c-1.1101,-19.46261 -7.26267,-33.57339 -7.26267,-33.57339l71.27838,-27.23005c0,0 14.00285,20.56154 14.77652,53.9731c0.35195,15.19942 -3.65366,39.46243 -5.27499,48.58573c-0.40689,2.28958 -1.93399,4.49719 -4.27627,5.75818c-8.43168,4.53929 -30.75348,14.12544 -57.70708,6.27151c-13.52745,-3.94171 -22.66497,-14.72287 -26.12375,-23.70048c-0.48819,-1.26716 0.62905,-2.32177 2.94233,-3.92727z" fill="#fff0a6" stroke-width="2.5" stroke-linecap="butt"/><path d="M242.98516,219.03303c-0.0183,-0.32088 14.51892,-0.63819 29.42642,-4.55632c18.02493,-4.73748 23.91528,-12.00248 28.08603,-4.56213c5.54394,9.89005 3.19117,31.1462 -3.76069,39.99193c-2.86773,3.64898 -19.44103,17.71309 -42.81268,10.9029c-11.72975,-3.41789 -17.90345,-9.60704 -20.90257,-17.39159c-0.42332,-1.09876 10.69938,-11.48297 9.96349,-24.38479z" fill="#ffffff" stroke-width="0" stroke-linecap="butt"/><path d="M308.40901,166.83075c0.30963,3.06004 5.28107,3.18643 -2.12727,8.35009c-11.23811,19.41152 -7.78123,10.93714 -17.72575,19.59879c-9.94452,8.66165 -23.35338,12.22189 -26.94135,12.52155c-3.58796,0.29965 -20.33554,5.34377 -24.65109,6.52895c-0.70084,0.19247 -13.71118,4.95288 -18.6006,0.36034c-1.00951,-0.94822 8.68953,-10.3153 9.67799,-14.89879c1.11159,-5.15444 7.47498,-16.12025 9.5517,-20.29089c6.14795,-12.34679 -1.79735,-25.15799 24.43212,-27.81205c26.22947,-2.65405 44.99571,1.91931 46.38425,15.64201z" fill="#ffab00" stroke-width="2.5" stroke-linecap="butt"/><path d="M324.39882,140.88166c4.57939,-0.2757 7.35369,-9.96037 8.16543,-9.06141c10.75444,11.91008 -3.22305,22.10198 -10.56119,24.86022c-8.13914,3.05932 -11.20665,0.92453 -13.61159,-2.84689c-2.40494,-3.77142 -2.16238,-7.12886 5.24809,-11.85433c7.41047,-4.72546 8.05838,-0.93499 10.75926,-1.09759z" fill="#e99c00" stroke-width="2.5" stroke-linecap="butt"/><path d="M330.78113,157.34195c4.09764,2.06303 11.36321,-4.9156 11.61323,-3.73046c3.31228,15.70149 -31.77751,11.35264 -31.96136,6.88346c-0.18385,-4.46918 1.71315,-7.24994 10.49464,-7.61119c8.78149,-0.36124 7.43673,3.24142 9.85348,4.45818z" fill="#ffab00" stroke-width="2.5" stroke-linecap="butt"/><path d="M314.53561,172.32839c0,0 -0.89349,-2.25 0.93791,-2.25c2.02567,0 41.2409,-40.31783 61.49362,-32.30365c25.55981,10.11424 35.2164,38.17887 33.06847,69.05365c-2.14792,30.87479 -19.06643,36.59317 -40.10957,32.15674c-1.84095,-0.38812 0.00324,-7.15782 1.50898,-11.82047c0.80313,-2.48695 1.50997,-4.37448 1.50997,-4.37448c0,0 -2.28823,10.14041 -5.79795,10.22735c-9.49689,0.23525 -8.61143,-18.68914 -8.61143,-18.68914c0,0 33.52325,-42.63379 10.01533,-49.60753c-28.312,-8.3989 -54.01533,7.60753 -54.01533,7.60753z" fill="#282828" stroke-width="2.5" stroke-linecap="butt"/><path d="M318.29133,160.74508c0.47456,4.69003 -3.15397,8.89814 -8.10457,9.39907c-4.9506,0.50093 -9.34855,-2.89502 -9.82312,-7.58505c-0.47456,-4.69003 3.15397,-8.89814 8.10457,-9.39907c4.9506,-0.50093 9.34856,2.89502 9.82312,7.58505z" fill="#ffab00" stroke-width="2.5" stroke-linecap="butt"/><path d="M300.62781,164.50557c0.21386,2.11354 2.32012,4.32827 -2.79676,7.89477c-2.67538,1.86474 -9.33845,1.14935 -12.15794,4.52445c-1.42543,1.70633 -7.1545,10.40738 -12.28422,12.42825c-3.46389,1.36461 -12.77327,2.80043 -15.25145,3.0074c-3.98859,0.33311 -4.03318,0.99742 -14.89975,8.61566c-5.84572,1.60541 8.90709,-11.51724 -5.11298,-3.10589c-3.50535,2.10304 5.93746,-12.65775 7.68669,-17.80379c0.82391,-2.42387 -9.25013,-3.94959 -8.28704,-5.88377c4.24633,-8.52782 12.94977,-18.64775 31.06623,-20.48087c18.11645,-1.83312 31.07813,1.32565 32.03718,10.8038z" fill="#e99c00" stroke-width="0" stroke-linecap="butt"/><path d="M316.70299,116.98806c3.37468,33.35138 -23.24968,63.35883 -59.46719,67.02353c-36.21751,3.66469 -68.31332,-20.4011 -71.68801,-53.75249c-3.37468,-33.35138 23.24968,-63.35884 59.46719,-67.02353c36.21751,-3.6647 68.31333,20.40111 71.68801,53.75249z" fill="#fff0a6" stroke-width="2.5" stroke-linecap="butt"/><path d="M296.41639,119.04077c3.37468,33.35138 -3.1063,59.89077 -39.32381,63.55547c-36.21751,3.66469 -67.41749,-20.96837 -70.79218,-54.31975c-3.37468,-33.35138 13.98524,-37.16098 50.20275,-40.82568c20.43169,-2.0674 32.70244,-8.19294 48.15615,5.13883c6.57003,5.66791 10.76054,16.60237 11.75709,26.45113z" fill="#ffffff" stroke-width="0" stroke-linecap="butt"/><path d="M309.38393,94.26021c-0.14351,1.04264 -13.46362,-23.10458 -42.28331,-23.81678c-31.02373,-0.76667 -31.48056,18.50084 -31.48056,18.50084c0,0 8.52677,50.20503 -37.28869,70.62599c-27.25537,12.14831 -72.85719,14.32614 -88.2577,-14.64737c-16.70468,-31.42709 4.33533,-77.96619 40.71331,-92.63024c38.97472,-15.71081 65.74981,4.39509 68.09826,3.94328c9.73156,-1.87221 -4.55156,-26.90522 20.35826,-28.74955c21.66876,-1.60437 28.81835,20.05564 35.73896,21.32621c8.2317,1.51127 1.6351,-23.2603 19.04385,-15.67466c16.45384,7.16955 18.39812,39.03249 15.35764,61.12232z" fill="#ffab00" stroke-width="2.5" stroke-linecap="butt"/><path d="M309.05349,90.99451c-0.03255,0.18081 -18.77259,-22.27787 -41.6637,-22.40357c-30.96336,-0.17004 -32.89393,18.66347 -32.89393,18.66347c0,0 7.8441,52.87894 -38.21534,70.88867c-27.40052,10.7139 -57.67672,13.62341 -72.60532,-10.68627c-16.1928,-26.3683 -7.20446,-64.83471 29.34328,-77.82106c39.1566,-13.91334 65.57904,2.70746 67.9308,2.28837c9.74528,-1.73664 -4.12858,-22.72502 20.77078,-24.67265c21.65967,-1.69422 28.46329,16.54665 35.35344,17.51617c8.19547,1.15318 1.99206,-19.73251 19.25633,-13.57467c8.85867,2.76187 16.10082,21.039 12.72367,39.80153z" fill="#ffd200" stroke-width="0" stroke-linecap="butt"/><path d="M231.42803,133.00554c1.47643,14.59124 0.20559,14.75416 -2.53027,15.03099c-2.73586,0.27683 -5.9007,0.56274 -7.37713,-14.0285c-1.47643,-14.59123 0.69024,-15.32142 3.4261,-15.59825c2.73586,-0.27683 5.00488,0.00452 6.4813,14.59575z" fill="#000000" stroke-width="2.5" stroke-linecap="butt"/><path d="M258.07528,123.16005c2.00372,19.80238 -0.84494,19.62657 -4.88358,20.03523c-4.03864,0.40866 -7.73792,1.24702 -9.74164,-18.55536c-2.00372,-19.80238 1.31673,-19.67431 5.35538,-20.08297c4.03864,-0.40865 7.26612,-1.19928 9.26984,18.6031z" fill="#000000" stroke-width="2.5" stroke-linecap="butt"/><path d="M229.25318,121.53642c0.25046,2.47531 -1.23629,4.6529 -3.32075,4.86382c-2.08446,0.21092 -3.97729,-1.62471 -4.22776,-4.10002c-0.25046,-2.47531 1.23628,-4.6529 3.32074,-4.86382c2.08446,-0.21092 3.9773,1.62471 4.22776,4.10002z" fill="#ffffff" stroke-width="2.5" stroke-linecap="butt"/><path d="M255.26157,110.08742c0.34274,3.38726 -1.69176,6.36713 -4.54417,6.65575c-2.85242,0.28862 -5.44261,-2.22329 -5.78535,-5.61055c-0.34274,-3.38725 1.69175,-6.36713 4.54417,-6.65575c2.85242,-0.28862 5.44261,2.2233 5.78535,5.61055z" fill="#ffffff" stroke-width="2.5" stroke-linecap="butt"/><path d="M208.12558,110.56741c0,0 0.18624,-8.8104 8.34631,-10.26831c8.94875,-1.59882 13.54099,5.19396 13.54099,5.19396l-0.81153,-8.02029" fill="none" stroke-width="2.5" stroke-linecap="round"/><path d="M241.1223,83.39802l0.81154,8.02028c0,0 3.13842,-7.57501 12.22606,-7.80122c8.28672,-0.20628 10.23408,8.38824 10.23408,8.38824" data-paper-data="{&quot;index&quot;:null}" fill="none" stroke-width="2.5" stroke-linecap="round"/><path d="M276.14799,152.82943c0.42843,4.23406 -11.68646,8.92745 -27.05936,10.48297c-15.3729,1.55552 -20.65934,-1.63103 -21.08777,-5.86509c-0.42843,-4.23406 4.1634,-7.91228 19.5363,-9.4678c15.3729,-1.55552 28.1824,0.61587 28.61083,4.84993z" fill="#000000" stroke-width="2.5" stroke-linecap="butt"/><path d="M276.39831,153.04149c0.56865,3.26471 -13.39369,10.41088 -30.13788,10.67531c-7.20102,0.11372 1.3422,-7.04668 16.80865,-10.51811c7.02709,-1.57722 12.92476,-2.47923 13.32922,-0.1572z" fill="#bd514c" stroke-width="2.5" stroke-linecap="butt"/><path d="M232.15329,155.03993c-0.71159,-1.15906 -1.03173,-2.73597 -1.03173,-2.73597c0,0 2.6427,-3.34638 17.17719,-4.53435c25.84945,-2.11281 27.62376,4.52895 27.62376,4.52895c0,0 -29.58499,6.80647 -37.03203,6.13017c-3.66865,-0.33317 -6.13587,-2.40936 -6.73718,-3.38879z" fill="#ffffff" stroke-width="2.5" stroke-linecap="butt"/><path d="M153.51454,286.48896c0,0 22.78023,-6.13288 16.3167,-25.17732c-3.46591,-10.21213 -14.62451,-20.37042 -14.84554,-28.68278c-0.15106,-5.68112 4.64187,-10.93876 12.75158,-15.06392c38.35424,-11.78438 50.25829,16.12433 50.25829,16.12433c0,0 -21.48883,-11.75496 -38.20979,-0.78381c-17.78148,12.39614 6.52317,28.0737 5.61822,38.39081c-0.90495,10.31711 -31.88946,15.1927 -31.88946,15.1927z" fill="#5a5a5a" stroke-width="0" stroke-linecap="butt"/><path d="M314.03561,172.32839c0,0 -0.89349,-2.25 0.93791,-2.25c2.02567,0 38.2409,-30.98449 58.49362,-22.97032c25.55981,10.11424 21.73514,59.72032 21.73514,59.72032c0,0 -3.7331,35.34317 -24.77624,30.90674c-1.84095,-0.38812 2.01895,-14.94495 2.01895,-14.94495c0,0 -1.78823,8.64041 -5.29795,8.72735c-9.49689,0.23525 -6.86143,-16.68914 -6.86143,-16.68914c0,0 35.52325,-45.63379 6.76533,-51.85753c-28.312,-8.3989 -53.01533,9.35753 -53.01533,9.35753z" fill="#5a5a5a" stroke-width="0" stroke-linecap="butt"/><path d="M143.75092,332.59849c0,0 -11.91539,-3.41537 -17.42991,-22.26854c-6.72903,-23.00532 2.4034,-36.74068 2.4034,-36.74068c0,0 11.24778,17.91019 20.43796,17.72366c17.10418,-0.34717 43.72951,-17.21756 71.27857,-21.88532c34.43906,-5.83515 69.33084,0.25786 77.47879,-0.56659c3.43813,-0.34789 4.10051,0.05444 1.39544,0.95279c-7.66113,2.54424 -50.2807,11.82753 -85.40217,26.12434c-38.86605,15.8211 -70.16207,36.66033 -70.16207,36.66033z" fill="#282828" stroke-width="2.5" stroke-linecap="butt"/><path d="M146.55643,310.86709c0,0 -13.87264,10.21338 -19.05036,-5.31131c-6.31806,-18.94379 1.50476,-29.13581 1.50476,-29.13581c0,0 11.1321,16.76693 20.30938,16.45293c17.08017,-0.58441 44.37272,-17.92624 71.95441,-22.2716c34.47984,-5.43212 52.83272,-0.28591 60.98067,-1.11036c3.43813,-0.34789 -38.51556,-2.4945 -73.82344,9.96018c-39.07233,13.78257 -61.87541,31.41597 -61.87541,31.41597z" fill="#5a5a5a" stroke-width="0" stroke-linecap="butt"/><path d="M381.56434,239.77412l2.4,-12.6" fill="none" stroke-width="2.5" stroke-linecap="round"/><path d="M394.16434,229.37412l1.2,6.8" fill="none" stroke-width="2.5" stroke-linecap="round"/><path d="M392.96434,228.77412l3.2,0.2" fill="none" stroke-width="2.5" stroke-linecap="round"/><path d="M382.56434,226.37412l4,0.6" fill="none" stroke-width="2.5" stroke-linecap="round"/><path d="M373.96434,223.77412l-3.4,-1.6" fill="none" stroke-width="2.5" stroke-linecap="round"/><path d="M369.38456,232.38756l2.75,-8.25" fill="none" stroke-width="2.5" stroke-linecap="round"/></g></g></svg>