<svg id="Layer_1" data-name="Layer 1" xmlns="http://www.w3.org/2000/svg" viewBox="0 0 808.53 332.5"><defs><style>.cls-1{fill:#fff;}.cls-2{fill:#ed1c24;}.cls-3{fill:#231f20;}</style></defs><title>Artboard 1</title><path class="cls-1" d="M102.43,84.14a2.11,2.11,0,0,0-2.06-1.73h0a2.11,2.11,0,0,0-2.07,1.7L86.21,146,32,147.94,8.81,21.42l46-4.08,9.9,78.2a2.11,2.11,0,0,0,2,1.84h.06a2.11,2.11,0,0,0,2.07-1.73l13.29-72.4h36.14l15.49,73.47a2.11,2.11,0,0,0,2.06,1.67H136a2.11,2.11,0,0,0,2-1.91l7.92-83.21,45.79,4.08L168.64,150.07l-54.14,1.14Z"/><path class="cls-2" d="M147.82,15.57l41.42,3.69L166.86,148l-50.61,1.07L104.5,83.77a4.22,4.22,0,0,0-4.12-3.47h0a4.22,4.22,0,0,0-4.14,3.41L84.47,144l-50.69,1.78L11.31,23.32,53,19.62l9.64,76.19a4.22,4.22,0,0,0,4.07,3.68h.12A4.22,4.22,0,0,0,71,96L84,25.37h32.67l15.14,71.8a4.22,4.22,0,0,0,4.12,3.35h.24a4.22,4.22,0,0,0,4-3.81l7.73-81.12M144,11l-8.12,85.3L120.05,21.15H80.45L66.84,95.28,56.69,15.06,6.32,19.52l24,130.58,57.68-2,12.39-63.57,12.39,68.85,57.68-1.22L194.18,15.46,144,11Z"/><path class="cls-3" d="M144,11l50.16,4.47L170.42,152.14l-57.68,1.22L100.35,84.51,88,148.08l-57.68,2L6.32,19.52l50.36-4.47L66.84,95.28,80.45,21.15h39.6l15.84,75.14L144,11m0-6.32a6.32,6.32,0,0,0-6.29,5.72l-4.19,44-7.29-34.57a6.32,6.32,0,0,0-6.19-5H80.45A6.32,6.32,0,0,0,74.23,20L68,54,63,14.26A6.32,6.32,0,0,0,56.7,8.73l-.57,0L5.77,13.23A6.32,6.32,0,0,0,.1,20.67l24,130.58a6.32,6.32,0,0,0,6.22,5.18h.23l57.68-2a6.32,6.32,0,0,0,6-5.11l5.93-30.44,6.41,35.64a6.32,6.32,0,0,0,6.22,5.2h.14l57.68-1.22a6.32,6.32,0,0,0,6.1-5.24L200.41,16.55a6.32,6.32,0,0,0-5.67-7.38L144.58,4.7l-.57,0Z"/><path class="cls-1" d="M257.13,150.44a61.94,61.94,0,0,1-16.84-2.26,64.23,64.23,0,0,1-15-6.34A60.33,60.33,0,0,1,212.69,132a61.28,61.28,0,0,1-9.62-12.76,66.17,66.17,0,0,1-6.2-15.11,63.49,63.49,0,0,1-2.21-16.81,68.86,68.86,0,0,1,8-32.31,67.18,67.18,0,0,1,9.4-13.39,62.11,62.11,0,0,1,12.32-10.51,59.33,59.33,0,0,1,14.76-6.86,56.76,56.76,0,0,1,16.74-2.44A73.93,73.93,0,0,1,282,26.27a54.79,54.79,0,0,1,32.8,32.36,71.24,71.24,0,0,1,4.58,26.09A71.84,71.84,0,0,1,317.33,102a67.93,67.93,0,0,1-6,15.61A64.92,64.92,0,0,1,301.94,131a60.24,60.24,0,0,1-12.46,10.35,60.47,60.47,0,0,1-32.34,9.12Zm0-88.14a22.38,22.38,0,0,0-9.41,1.92,21.69,21.69,0,0,0-7.14,5.23,22.88,22.88,0,0,0-4.53,7.71,27.37,27.37,0,0,0-1.54,9.18,33.18,33.18,0,0,0,1.3,9.11,27.54,27.54,0,0,0,4,8.35,21.61,21.61,0,0,0,6.69,6.18,18.28,18.28,0,0,0,9.45,2.43,21.28,21.28,0,0,0,9.51-2.1,21.54,21.54,0,0,0,7.14-5.63,25.47,25.47,0,0,0,4.43-8,28.78,28.78,0,0,0,1.53-9.31,30.81,30.81,0,0,0-1.36-9.1,25.5,25.5,0,0,0-4-8,21.2,21.2,0,0,0-6.7-5.75A19.08,19.08,0,0,0,257.13,62.3Z"/><path class="cls-2" d="M255.92,23.94a71.86,71.86,0,0,1,25.37,4.3A52.68,52.68,0,0,1,312.87,59.4a69.14,69.14,0,0,1,4.43,25.32,69.75,69.75,0,0,1-2,16.8,65.83,65.83,0,0,1-5.77,15.13,62.78,62.78,0,0,1-9.13,12.89,58.12,58.12,0,0,1-12,10,58.37,58.37,0,0,1-31.22,8.8,59.86,59.86,0,0,1-16.27-2.18,62.16,62.16,0,0,1-14.5-6.13,58.27,58.27,0,0,1-12.17-9.47,59.21,59.21,0,0,1-9.29-12.32,64.06,64.06,0,0,1-6-14.63,61.4,61.4,0,0,1-2.13-16.25A66.77,66.77,0,0,1,204.55,56a65.11,65.11,0,0,1,9.11-13,60,60,0,0,1,11.91-10.15,57.21,57.21,0,0,1,14.23-6.62,54.66,54.66,0,0,1,16.12-2.35m0,90.58a23.37,23.37,0,0,0,10.44-2.31A23.63,23.63,0,0,0,274.2,106a27.58,27.58,0,0,0,4.8-8.68,30.87,30.87,0,0,0,1.65-10,32.93,32.93,0,0,0-1.46-9.72A27.57,27.57,0,0,0,274.81,69a23.28,23.28,0,0,0-7.37-6.32,21.15,21.15,0,0,0-10.3-2.5,24.47,24.47,0,0,0-10.29,2.11A23.79,23.79,0,0,0,239,68a25,25,0,0,0-5,8.41,29.49,29.49,0,0,0-1.66,9.89A35.29,35.29,0,0,0,233.79,96a29.65,29.65,0,0,0,4.26,9,23.7,23.7,0,0,0,7.34,6.78,20.35,20.35,0,0,0,10.53,2.72m0-94.79a58.6,58.6,0,0,0-17.36,2.54,61.15,61.15,0,0,0-15.28,7.11,63.9,63.9,0,0,0-12.74,10.87A69,69,0,0,0,200.83,54a71,71,0,0,0-8.28,33.31,65.31,65.31,0,0,0,2.29,17.36,68,68,0,0,0,6.4,15.59,63.12,63.12,0,0,0,10,13.2,62.2,62.2,0,0,0,13,10.15,66.07,66.07,0,0,0,15.49,6.55,63.77,63.77,0,0,0,17.41,2.34,62.59,62.59,0,0,0,33.46-9.44,62,62,0,0,0,12.9-10.71,66.69,66.69,0,0,0,9.75-13.76,69.72,69.72,0,0,0,6.14-16.09,73.62,73.62,0,0,0,2.13-17.82,73,73,0,0,0-4.72-26.86,56.89,56.89,0,0,0-34-33.56,75.7,75.7,0,0,0-26.86-4.57Zm0,90.58a16.13,16.13,0,0,1-8.38-2.13,19.42,19.42,0,0,1-6-5.58,25.33,25.33,0,0,1-3.65-7.72,30.94,30.94,0,0,1-1.22-8.53A25.17,25.17,0,0,1,238,77.86a20.7,20.7,0,0,1,4.11-7,19.52,19.52,0,0,1,6.45-4.72,20.21,20.21,0,0,1,8.53-1.73,16.92,16.92,0,0,1,8.28,2,19,19,0,0,1,6,5.18,23.26,23.26,0,0,1,3.71,7.31,28.59,28.59,0,0,1,1.27,8.48A26.54,26.54,0,0,1,275,96a23.27,23.27,0,0,1-4.06,7.36,19.35,19.35,0,0,1-6.45,5.08,19.12,19.12,0,0,1-8.58,1.88Z"/><path class="cls-3" d="M255.92,19.73a75.7,75.7,0,0,1,26.86,4.57,56.89,56.89,0,0,1,34,33.56,73,73,0,0,1,4.72,26.86,73.62,73.62,0,0,1-2.13,17.82,69.72,69.72,0,0,1-6.14,16.09,66.69,66.69,0,0,1-9.75,13.76,62,62,0,0,1-12.9,10.71,62.59,62.59,0,0,1-33.46,9.44,63.77,63.77,0,0,1-17.41-2.34,66.07,66.07,0,0,1-15.49-6.55,62.2,62.2,0,0,1-13-10.15,63.12,63.12,0,0,1-10-13.2,68,68,0,0,1-6.4-15.59,65.31,65.31,0,0,1-2.29-17.36A71,71,0,0,1,200.83,54a69,69,0,0,1,9.7-13.81,63.9,63.9,0,0,1,12.74-10.87,61.15,61.15,0,0,1,15.28-7.11,58.6,58.6,0,0,1,17.36-2.54m0,90.58a19.12,19.12,0,0,0,8.58-1.88,19.35,19.35,0,0,0,6.45-5.08A23.27,23.27,0,0,0,275,96a26.54,26.54,0,0,0,1.42-8.63,28.59,28.59,0,0,0-1.27-8.48,23.26,23.26,0,0,0-3.71-7.31,19,19,0,0,0-6-5.18,16.92,16.92,0,0,0-8.28-2,20.21,20.21,0,0,0-8.53,1.73,19.52,19.52,0,0,0-6.45,4.72,20.7,20.7,0,0,0-4.11,7,25.17,25.17,0,0,0-1.42,8.48,30.94,30.94,0,0,0,1.22,8.53,25.33,25.33,0,0,0,3.65,7.72,19.42,19.42,0,0,0,6,5.58,16.13,16.13,0,0,0,8.38,2.13m0-96.9a65.18,65.18,0,0,0-19.23,2.82,67.76,67.76,0,0,0-16.86,7.84,70.52,70.52,0,0,0-14,11.93,75.66,75.66,0,0,0-10.58,15.07,77.31,77.31,0,0,0-9,36.28,71.93,71.93,0,0,0,2.51,19,74.6,74.6,0,0,0,7,17,69.75,69.75,0,0,0,10.94,14.52A68.8,68.8,0,0,0,221,149.12a72.69,72.69,0,0,0,17,7.18,70.38,70.38,0,0,0,19.13,2.57,68.91,68.91,0,0,0,36.81-10.4,68.65,68.65,0,0,0,14.2-11.8,73.33,73.33,0,0,0,10.67-15.06,76.39,76.39,0,0,0,6.7-17.55,80.29,80.29,0,0,0,2.32-19.35,79.6,79.6,0,0,0-5.16-29.17A63.21,63.21,0,0,0,285,18.38a82.33,82.33,0,0,0-29.09-5Zm0,90.58a9.86,9.86,0,0,1-5.16-1.25,13.05,13.05,0,0,1-4.1-3.79,19.14,19.14,0,0,1-2.74-5.81,24.76,24.76,0,0,1-1-6.79A18.73,18.73,0,0,1,244,80a14.31,14.31,0,0,1,2.86-4.89,13.14,13.14,0,0,1,4.39-3.2,14.06,14.06,0,0,1,5.89-1.15,10.62,10.62,0,0,1,5.23,1.2,12.63,12.63,0,0,1,4.05,3.47,16.85,16.85,0,0,1,2.7,5.35,22.39,22.39,0,0,1,1,6.61A20.36,20.36,0,0,1,269,93.94a16.85,16.85,0,0,1-3,5.38,13,13,0,0,1-4.37,3.43,12.79,12.79,0,0,1-5.78,1.23Z"/><path class="cls-1" d="M416.7,84.14a2.11,2.11,0,0,0-2.06-1.73h0a2.11,2.11,0,0,0-2.07,1.7L400.49,146l-54.18,1.91L323.09,21.42l46-4.08,9.9,78.2a2.11,2.11,0,0,0,2,1.84h.06a2.11,2.11,0,0,0,2.07-1.73l13.29-72.4h36.13l15.49,73.47a2.11,2.11,0,0,0,2.06,1.67h.12a2.11,2.11,0,0,0,2-1.91l7.93-83.21L506,17.36,482.92,150.07l-54.14,1.14Z"/><path class="cls-2" d="M462.09,15.57l41.42,3.69L481.13,148l-50.61,1.07-11.75-65.3a4.22,4.22,0,0,0-4.12-3.47h0a4.22,4.22,0,0,0-4.14,3.41L398.74,144l-50.69,1.78L325.58,23.32l41.71-3.7,9.64,76.19A4.22,4.22,0,0,0,381,99.49h.12A4.22,4.22,0,0,0,385.26,96l13-70.67H430.9L446,97.16a4.22,4.22,0,0,0,4.12,3.35h.24a4.22,4.22,0,0,0,4-3.81l7.73-81.12M458.29,11l-8.12,85.3L434.32,21.15h-39.6L381.12,95.28,371,15.06,320.6,19.52l24,130.58,57.68-2,12.39-63.57L427,153.36l57.68-1.22L508.45,15.46,458.29,11Z"/><path class="cls-3" d="M458.29,11l50.16,4.47L484.69,152.14,427,153.36,414.63,84.51l-12.39,63.57-57.68,2-24-130.58L371,15.06l10.15,80.22,13.61-74.13h39.6l15.84,75.14L458.29,11m0-6.32A6.32,6.32,0,0,0,452,10.4l-4.19,44-7.29-34.58a6.32,6.32,0,0,0-6.19-5h-39.6A6.32,6.32,0,0,0,388.5,20l-6.24,34-5-39.73A6.32,6.32,0,0,0,371,8.73l-.57,0L320,13.23a6.32,6.32,0,0,0-5.66,7.44l24,130.58a6.32,6.32,0,0,0,6.22,5.18h.23l57.68-2a6.32,6.32,0,0,0,6-5.11l5.93-30.45,6.41,35.64a6.32,6.32,0,0,0,6.22,5.2h.14l57.68-1.22a6.32,6.32,0,0,0,6.1-5.24L514.68,16.55A6.32,6.32,0,0,0,509,9.16L458.85,4.7l-.57,0Z"/><path class="cls-1" d="M527.87,61.21q-.15-3.31-.36-7.08t-.3-6.66a2.11,2.11,0,0,0-1.37-1.91,17.8,17.8,0,0,1-8.93-7,19.1,19.1,0,0,1-3.3-10.91,18.45,18.45,0,0,1,1.5-7.39,19.71,19.71,0,0,1,4.13-6.1A20.41,20.41,0,0,1,525.36,10a18.71,18.71,0,0,1,14.89,0A19.93,19.93,0,0,1,550.6,20.28,16.82,16.82,0,0,1,552,27.6v.66a33.28,33.28,0,0,1-2,9.88,49.91,49.91,0,0,1-5.41,11,61.12,61.12,0,0,1-8.49,10.31,46.61,46.61,0,0,1-8.09,6.34Z"/><path class="cls-2" d="M532.82,10.54a16.16,16.16,0,0,1,6.57,1.37,17.82,17.82,0,0,1,9.28,9.24,14.69,14.69,0,0,1,1.26,6.5v.52a31.29,31.29,0,0,1-1.86,9.29,47.82,47.82,0,0,1-5.18,10.49,58.93,58.93,0,0,1-8.2,9.95,44.39,44.39,0,0,1-4.68,4l0-.77q-.15-3.31-.36-7.09t-.3-6.61a4.22,4.22,0,0,0-2.75-3.81,15.76,15.76,0,0,1-7.91-6.2,17,17,0,0,1-2.95-9.75A16.13,16.13,0,0,1,517,21.1a17.58,17.58,0,0,1,3.68-5.45,18.29,18.29,0,0,1,5.49-3.75,15.84,15.84,0,0,1,6.6-1.36m0-4.22a20.15,20.15,0,0,0-8.33,1.73,22.38,22.38,0,0,0-6.75,4.62,21.67,21.67,0,0,0-4.57,6.75,20.45,20.45,0,0,0-1.68,8.23,21.32,21.32,0,0,0,3.66,12.08,20,20,0,0,0,10,7.82q.1,2.95.3,6.7t.36,7.06q.15,3.3.25,5.58t.1,2.39a48.55,48.55,0,0,0,11.53-8.38,62.86,62.86,0,0,0,8.78-10.66,51.79,51.79,0,0,0,5.63-11.42,35.27,35.27,0,0,0,2.08-10.56v-.61a18.85,18.85,0,0,0-1.63-8.23A22,22,0,0,0,541.1,8.05a20.27,20.27,0,0,0-8.28-1.73Z"/><path class="cls-3" d="M532.82,6.32a20.27,20.27,0,0,1,8.28,1.73,22,22,0,0,1,11.42,11.37,18.85,18.85,0,0,1,1.63,8.23v.61a35.27,35.27,0,0,1-2.08,10.56,51.79,51.79,0,0,1-5.63,11.42,62.86,62.86,0,0,1-8.78,10.66,48.55,48.55,0,0,1-11.53,8.38q0-.1-.1-2.39t-.25-5.58q-.15-3.3-.36-7.06t-.3-6.7a20,20,0,0,1-10-7.82,21.32,21.32,0,0,1-3.66-12.08,20.45,20.45,0,0,1,1.68-8.23,21.67,21.67,0,0,1,4.57-6.75,22.38,22.38,0,0,1,6.75-4.62,20.15,20.15,0,0,1,8.33-1.73m0-6.32a26.52,26.52,0,0,0-10.91,2.28,28.79,28.79,0,0,0-8.64,5.92,28.07,28.07,0,0,0-5.9,8.7,26.84,26.84,0,0,0-2.2,10.75,27.64,27.64,0,0,0,4.72,15.59,26.13,26.13,0,0,0,9.05,8.42c0,.92.09,1.9.15,2.94q.2,3.73.35,7l.25,5.57,0,.59q.06,1.39.07,1.66a6.32,6.32,0,0,0,9.26,5.46,55.09,55.09,0,0,0,13-9.46,69.49,69.49,0,0,0,9.66-11.74A58.35,58.35,0,0,0,558,40.86a41.69,41.69,0,0,0,2.42-12.47s0-.09,0-.14v-.54a25.2,25.2,0,0,0-2.18-10.87A28.36,28.36,0,0,0,543.65,2.27,26.64,26.64,0,0,0,532.82,0Z"/><path class="cls-1" d="M614.36,156.73a56.68,56.68,0,0,1-17.72-2.64,52.25,52.25,0,0,1-14.49-7.37,54.73,54.73,0,0,1-11.39-11.2,66.18,66.18,0,0,1-8.17-14.17A82.8,82.8,0,0,1,557.64,105,91.37,91.37,0,0,1,556,87.56a103.23,103.23,0,0,1,1.69-18.51,92.66,92.66,0,0,1,5.11-17.77,75.52,75.52,0,0,1,8.59-15.75,61.4,61.4,0,0,1,12-12.62,53.74,53.74,0,0,1,15.49-8.4,57.92,57.92,0,0,1,19.15-3,50.09,50.09,0,0,1,15.83,2.38,44.06,44.06,0,0,1,12.7,6.59,45.62,45.62,0,0,1,9.7,10,58.84,58.84,0,0,1,6.86,12.89,78.08,78.08,0,0,1,4.05,14.93,96,96,0,0,1,1.34,16,127.59,127.59,0,0,1-1,15.68c-11,.75-22.1,1.93-33,3.51Q617.41,96,600.26,98.47a2.11,2.11,0,0,0-1.69,2.8,27.39,27.39,0,0,0,9,12.63,23.47,23.47,0,0,0,14.75,4.81,31.92,31.92,0,0,0,9.52-1.62,75.9,75.9,0,0,0,9.87-3.92c3.23-1.55,6.37-3.24,9.32-5,1.37-.83,2.66-1.63,3.86-2.39l-4.31,40.78a43,43,0,0,1-7.46,4.4,56.94,56.94,0,0,1-9.25,3.33,71.57,71.57,0,0,1-9.77,1.88A81.92,81.92,0,0,1,614.36,156.73Zm3.86-106.62a14.24,14.24,0,0,0-8.37,2.57,23.3,23.3,0,0,0-5.86,6,35.39,35.39,0,0,0-3.89,7.61,56.5,56.5,0,0,0-2.21,7.39,2.11,2.11,0,0,0,2.06,2.56h.2l30.06-2.84a2.11,2.11,0,0,0,1.91-2.1V69.08a31.56,31.56,0,0,0-.65-6.26,20.8,20.8,0,0,0-2.21-6,14.28,14.28,0,0,0-4.23-4.7A11.57,11.57,0,0,0,618.22,50.11Z"/><path class="cls-2" d="M618,13.59a48,48,0,0,1,15.17,2.27,42,42,0,0,1,12.09,6.27,43.6,43.6,0,0,1,9.26,9.58,56.77,56.77,0,0,1,6.61,12.43,76,76,0,0,1,3.94,14.53,94,94,0,0,1,1.31,15.69,125.3,125.3,0,0,1-.76,13.7c-10.5.76-21,1.9-31.38,3.4Q617.11,93.95,600,96.38a4.22,4.22,0,0,0-3.37,5.61,29.47,29.47,0,0,0,9.66,13.58,25.53,25.53,0,0,0,16,5.25,34,34,0,0,0,10.15-1.72,78.1,78.1,0,0,0,10.14-4c3.3-1.58,6.49-3.3,9.5-5.12l.22-.13-3.76,35.56a41.07,41.07,0,0,1-6.35,3.64,54.93,54.93,0,0,1-8.91,3.21,69.53,69.53,0,0,1-9.48,1.82,79.78,79.78,0,0,1-9.45.58,54.57,54.57,0,0,1-17.06-2.53A50.14,50.14,0,0,1,583.39,145a52.67,52.67,0,0,1-11-10.77,64.07,64.07,0,0,1-7.91-13.72,80.61,80.61,0,0,1-4.82-15.92,89.18,89.18,0,0,1-1.65-17.06,101.11,101.11,0,0,1,1.66-18.13,90.46,90.46,0,0,1,5-17.36,73.34,73.34,0,0,1,8.35-15.32,59.29,59.29,0,0,1,11.61-12.18,51.64,51.64,0,0,1,14.88-8.07A55.84,55.84,0,0,1,618,13.59M599.94,78.37l.4,0,30.06-2.84a4.22,4.22,0,0,0,3.82-4.2V69.08a33.69,33.69,0,0,0-.69-6.68,22.83,22.83,0,0,0-2.44-6.66,16.36,16.36,0,0,0-4.85-5.39,13.62,13.62,0,0,0-8-2.34,16.31,16.31,0,0,0-9.59,3,25.41,25.41,0,0,0-6.39,6.56,37.48,37.48,0,0,0-4.12,8.07,58.63,58.63,0,0,0-2.3,7.67,4.22,4.22,0,0,0,4.12,5.12M618,9.37a59.75,59.75,0,0,0-19.85,3.15,55.58,55.58,0,0,0-16.1,8.73,63.2,63.2,0,0,0-12.44,13,77.19,77.19,0,0,0-8.84,16.2,94.24,94.24,0,0,0-5.23,18.18,104.84,104.84,0,0,0-1.73,18.89,93,93,0,0,0,1.73,17.87,84.44,84.44,0,0,0,5.08,16.75,68,68,0,0,0,8.43,14.62,56.62,56.62,0,0,0,11.83,11.63A54.09,54.09,0,0,0,596,156.1a58.5,58.5,0,0,0,18.38,2.74,83.6,83.6,0,0,0,10-.61,73.42,73.42,0,0,0,10.05-1.93,58.87,58.87,0,0,0,9.59-3.45,44.82,44.82,0,0,0,8.58-5.18l4.87-46.1q-3.15,2.13-7.51,4.77t-9.14,4.92a73.51,73.51,0,0,1-9.59,3.81,29.7,29.7,0,0,1-8.88,1.52,21.31,21.31,0,0,1-13.45-4.37,25.21,25.21,0,0,1-8.28-11.68q17.16-2.44,34.32-4.92T669.4,92a129.35,129.35,0,0,0,1.22-17.67A97.79,97.79,0,0,0,669.25,58a79.89,79.89,0,0,0-4.16-15.33A60.72,60.72,0,0,0,658,29.27a47.59,47.59,0,0,0-10.15-10.51,46,46,0,0,0-13.3-6.91A52,52,0,0,0,618,9.37ZM599.94,74.15A54.16,54.16,0,0,1,602.08,67a33.11,33.11,0,0,1,3.66-7.16,21.11,21.11,0,0,1,5.33-5.48,12.12,12.12,0,0,1,7.16-2.18,9.47,9.47,0,0,1,5.58,1.57,12.11,12.11,0,0,1,3.6,4,18.54,18.54,0,0,1,2,5.43,29.32,29.32,0,0,1,.61,5.84v2.23l-30.06,2.84Zm57.47,27.42h0Z"/><path class="cls-3" d="M618,9.37a52,52,0,0,1,16.5,2.49,46,46,0,0,1,13.3,6.91A47.59,47.59,0,0,1,658,29.27a60.72,60.72,0,0,1,7.11,13.35A79.89,79.89,0,0,1,669.25,58a97.79,97.79,0,0,1,1.37,16.4A129.35,129.35,0,0,1,669.4,92Q652,93.15,634.87,95.63t-34.32,4.92a25.21,25.21,0,0,0,8.28,11.68,21.31,21.31,0,0,0,13.45,4.37,29.7,29.7,0,0,0,8.88-1.52,73.51,73.51,0,0,0,9.59-3.81q4.77-2.28,9.14-4.92t7.51-4.77l-4.87,46.1a44.82,44.82,0,0,1-8.58,5.18,58.87,58.87,0,0,1-9.59,3.45,73.42,73.42,0,0,1-10.05,1.93,83.6,83.6,0,0,1-10,.61A58.5,58.5,0,0,1,596,156.1a54.09,54.09,0,0,1-15.08-7.67,56.62,56.62,0,0,1-11.83-11.63,68,68,0,0,1-8.43-14.62,84.44,84.44,0,0,1-5.08-16.75,93,93,0,0,1-1.73-17.87,104.84,104.84,0,0,1,1.73-18.89A94.24,94.24,0,0,1,560.8,50.5a77.19,77.19,0,0,1,8.84-16.2,63.2,63.2,0,0,1,12.44-13,55.58,55.58,0,0,1,16.1-8.73A59.75,59.75,0,0,1,618,9.37M599.94,74.15,630,71.31V69.08a29.32,29.32,0,0,0-.61-5.84,18.54,18.54,0,0,0-2-5.43,12.11,12.11,0,0,0-3.6-4,9.47,9.47,0,0,0-5.58-1.57,12.12,12.12,0,0,0-7.16,2.18,21.11,21.11,0,0,0-5.33,5.48A33.11,33.11,0,0,0,602.08,67a54.16,54.16,0,0,0-2.13,7.11m57.47,27.42h0M618,3a66.32,66.32,0,0,0-21.94,3.5,62.16,62.16,0,0,0-17.91,9.73,69.82,69.82,0,0,0-13.68,14.35,83.88,83.88,0,0,0-9.56,17.52,101,101,0,0,0-5.58,19.39,111.67,111.67,0,0,0-1.83,20,99.75,99.75,0,0,0,1.84,19.08,91.18,91.18,0,0,0,5.46,18,74.62,74.62,0,0,0,9.21,16,63.2,63.2,0,0,0,13.14,12.92A60.66,60.66,0,0,0,594,162.11a65.05,65.05,0,0,0,20.36,3.06,90.34,90.34,0,0,0,10.7-.65,80.12,80.12,0,0,0,10.92-2.1,65.5,65.5,0,0,0,10.62-3.82,51.36,51.36,0,0,0,9.79-5.91,6.32,6.32,0,0,0,2.43-4.35l4.85-45.83a6.36,6.36,0,0,0-.56-3.69q3.35-.27,6.69-.48a6.32,6.32,0,0,0,5.86-5.45,136.29,136.29,0,0,0,1.28-18.53,104.57,104.57,0,0,0-1.46-17.46A86.59,86.59,0,0,0,671,40.36a67.33,67.33,0,0,0-7.85-14.74,54.13,54.13,0,0,0-11.5-11.9,52.51,52.51,0,0,0-15.12-7.86A58.49,58.49,0,0,0,618,3Zm-9,63.9a26.34,26.34,0,0,1,2-3.52,14.71,14.71,0,0,1,3.74-3.86,5.82,5.82,0,0,1,3.51-1,3.68,3.68,0,0,1,1.95.42,5.8,5.8,0,0,1,1.73,1.94,12.32,12.32,0,0,1,1.29,3.59q.11.55.2,1.09L609,66.95Zm1.79,38.54,25-3.6q5.87-.85,11.81-1.54l-1,.59c-2.72,1.64-5.61,3.2-8.59,4.63a67.53,67.53,0,0,1-8.77,3.48,23.6,23.6,0,0,1-7,1.23,15,15,0,0,1-9.58-3,17.7,17.7,0,0,1-1.94-1.74Z"/><path class="cls-1" d="M677.12,151.15q2-34.67,3.78-69c1.21-22.89,2.2-46.22,2.94-69.39l43.72-2.22-.35,14a2.11,2.11,0,0,0,3.73,1.39,64.1,64.1,0,0,1,5.95-6.29,38.09,38.09,0,0,1,6.69-5,35.16,35.16,0,0,1,7.52-3.26,28.7,28.7,0,0,1,8.28-1.18,35.59,35.59,0,0,1,14.29,2.67,32.44,32.44,0,0,1,10.49,7.24,41.44,41.44,0,0,1,7.44,11,77.37,77.37,0,0,1,4.94,13.79,123.28,123.28,0,0,1,2.9,15.42c.66,5.37,1.12,10.73,1.36,15.93s.35,10.33.35,15.24V105c0,7.6-.08,15.22-.25,22.65-.15,6.71-.38,13.59-.67,20.5l-54-.94c1.86-11.17,3.5-22.45,4.89-33.57a296.1,296.1,0,0,0,2.25-36.46q0-1.34-.1-4.34c-.07-2-.21-4.26-.41-6.75s-.5-5.06-.88-7.74a52.81,52.81,0,0,0-1.59-7.46,22,22,0,0,0-2.6-5.89,5.94,5.94,0,0,0-5.06-3,10.79,10.79,0,0,0-7.2,2.53A18.16,18.16,0,0,0,731,50.43,35.12,35.12,0,0,0,728.37,58,74.07,74.07,0,0,0,727,66.2c-.31,2.69-.52,5.25-.62,7.61s-.15,4.32-.15,5.83c-.34,11.81-.61,23.83-.81,35.66-.19,11.05-.44,22.42-.76,33.81Z"/><path class="cls-2" d="M759.36,12.37a33.5,33.5,0,0,1,13.44,2.49,30.33,30.33,0,0,1,9.82,6.77A39.29,39.29,0,0,1,789.67,32a75.17,75.17,0,0,1,4.8,13.41,121.42,121.42,0,0,1,2.85,15.16c.66,5.32,1.11,10.62,1.34,15.76s.35,10.27.35,15.14V105c0,7.58-.08,15.19-.25,22.6-.14,6-.33,12.2-.58,18.4l-49.49-.86c1.7-10.41,3.21-20.9,4.5-31.24a298.12,298.12,0,0,0,2.27-36.72c0-.91,0-2.31-.1-4.41s-.21-4.32-.42-6.85-.5-5.14-.89-7.87a54.76,54.76,0,0,0-1.66-7.77,24.1,24.1,0,0,0-2.86-6.45,8,8,0,0,0-6.82-4,12.85,12.85,0,0,0-8.57,3,20.28,20.28,0,0,0-5,6.57,37.17,37.17,0,0,0-2.82,8.08A76.39,76.39,0,0,0,724.87,66c-.32,2.74-.53,5.35-.63,7.76s-.16,4.32-.16,5.86c-.34,11.86-.61,23.86-.81,35.68-.18,10.41-.42,21.1-.7,31.82l-43.21,1.86c1.23-21.77,2.45-44.17,3.65-66.65,1.18-22.26,2.15-45,2.88-67.49l39.51-2-.29,11.7a4.22,4.22,0,0,0,7.47,2.79,61.71,61.71,0,0,1,5.75-6.08,36,36,0,0,1,6.32-4.68,33.11,33.11,0,0,1,7.07-3.06,26.6,26.6,0,0,1,7.67-1.09m0-4.22a30.67,30.67,0,0,0-8.88,1.27,37.16,37.16,0,0,0-8,3.45,40,40,0,0,0-7.06,5.23,65.65,65.65,0,0,0-6.14,6.5l.41-16.25-47.93,2.44q-1.12,35.85-3,71.28t-3.91,71.28l51.79-2.23q.51-18.07.81-35.79t.81-35.69q0-2.23.15-5.74t.61-7.46a71.8,71.8,0,0,1,1.37-7.92,32.8,32.8,0,0,1,2.49-7.16,16,16,0,0,1,4-5.23,8.7,8.7,0,0,1,5.84-2,3.94,3.94,0,0,1,3.3,2.08,20.19,20.19,0,0,1,2.33,5.33,50.3,50.3,0,0,1,1.52,7.16q.56,3.91.86,7.62t.41,6.65q.1,2.95.1,4.27A292.56,292.56,0,0,1,749,113.4q-2.24,17.92-5.28,35.9l58.49,1q.51-11.37.76-22.59t.25-22.69V91.52q0-7.41-.35-15.33T801.5,60.09a125,125,0,0,0-2.95-15.69,79,79,0,0,0-5.08-14.17,43.3,43.3,0,0,0-7.82-11.52A34.37,34.37,0,0,0,774.49,11a37.49,37.49,0,0,0-15.13-2.84Zm-29.65.2h0Z"/><path class="cls-3" d="M759.36,8.15A37.49,37.49,0,0,1,774.49,11a34.37,34.37,0,0,1,11.17,7.72,43.3,43.3,0,0,1,7.82,11.52,79,79,0,0,1,5.08,14.17,125,125,0,0,1,2.95,15.69q1,8.18,1.37,16.09t.35,15.33V105q0,11.48-.25,22.69t-.76,22.59l-58.49-1q3-18,5.28-35.9a292.56,292.56,0,0,0,2.23-36.2q0-1.32-.1-4.27t-.41-6.65q-.3-3.71-.86-7.62a50.3,50.3,0,0,0-1.52-7.16A20.19,20.19,0,0,0,746,46.18a3.94,3.94,0,0,0-3.3-2.08,8.7,8.7,0,0,0-5.84,2,16,16,0,0,0-4,5.23,32.8,32.8,0,0,0-2.49,7.16,71.8,71.8,0,0,0-1.37,7.92q-.46,4-.61,7.46t-.15,5.74q-.51,18-.81,35.69t-.81,35.79l-51.79,2.23q2-35.84,3.91-71.28t3-71.28l47.93-2.44-.41,16.25a65.65,65.65,0,0,1,6.14-6.5,40,40,0,0,1,7.06-5.23,37.16,37.16,0,0,1,8-3.45,30.67,30.67,0,0,1,8.88-1.27m-29.65.2h0m29.64-6.53a37.13,37.13,0,0,0-10.71,1.54,43.67,43.67,0,0,0-9.33,4q-1.7,1-3.32,2.13l0-.76q0-.21,0-.42A6.32,6.32,0,0,0,729.73,2h-.38L681.46,4.48a6.32,6.32,0,0,0-6,6.12c-.74,23.74-1.75,47.68-3,71.15-1.28,24.08-2.59,48.05-3.91,71.26a6.32,6.32,0,0,0,6.31,6.68h.27l51.79-2.23a6.32,6.32,0,0,0,6-6.14c.34-12.08.61-24.15.81-35.86s.47-23.78.81-35.62q0-.09,0-.18c0-1.38,0-3.22.15-5.46s.29-4.52.57-7a65.77,65.77,0,0,1,1.25-7.22,26.65,26.65,0,0,1,2-5.78A9.74,9.74,0,0,1,741,50.94a2,2,0,0,1,.34-.24,17.81,17.81,0,0,1,1,2.61,44.2,44.2,0,0,1,1.32,6.25c.36,2.51.63,4.95.82,7.24s.33,4.5.39,6.35.1,3.27.1,4a287.57,287.57,0,0,1-2.19,35.42c-1.47,11.8-3.23,23.78-5.24,35.62a6.32,6.32,0,0,0,6.13,7.38l58.49,1h.11a6.32,6.32,0,0,0,6.32-6c.34-7.65.6-15.3.77-22.73s.25-15.17.25-22.84V91.52c0-5-.12-10.28-.36-15.62s-.72-11-1.41-16.59a132,132,0,0,0-3.1-16.48,85.74,85.74,0,0,0-5.48-15.3,49.8,49.8,0,0,0-9-13.2A40.82,40.82,0,0,0,777,5.2a43.91,43.91,0,0,0-17.67-3.37Z"/><path class="cls-1" d="M157.06,252.51a2.11,2.11,0,0,0-2.06-1.75h0a2.11,2.11,0,0,0-2.07,1.73l-12.08,66-54.14,1.91L63.42,185.71l46.05-4.08,9.91,82.25a2.11,2.11,0,0,0,2.05,1.86h0a2.11,2.11,0,0,0,2.08-1.77l13.32-82.51h36.05L188.45,265a2.11,2.11,0,0,0,2.07,1.72h.09a2.11,2.11,0,0,0,2-1.91l7.92-83.21,45.8,4.08L223.26,322.49l-54.11,1.14Z"/><path class="cls-2" d="M171.18,183.57l15.2,81.85a4.22,4.22,0,0,0,4.14,3.45h.19a4.22,4.22,0,0,0,4-3.81l7.73-81.12,41.45,3.69-22.42,132.8-50.55,1.07-11.78-69.32a4.22,4.22,0,0,0-4.13-3.51h0a4.22,4.22,0,0,0-4.15,3.46L139.06,316.4l-50.61,1.78L65.89,187.61l41.73-3.7,9.67,80.22a4.22,4.22,0,0,0,4.1,3.71h.09a4.22,4.22,0,0,0,4.16-3.54l13-80.74h32.51m27.47-4.22-8.12,85.3-15.84-85.3h-39.6l-13.61,84.28-10.15-84.28L61,183.82l24,138.71,57.68-2L155,252.87l12.39,72.91L225,324.56l23.76-140.74-50.16-4.47Z"/><path class="cls-3" d="M198.65,179.35l50.16,4.47L225,324.56l-57.68,1.22L155,252.87,142.59,320.5l-57.68,2L61,183.82l50.37-4.47,10.15,84.28,13.61-84.28h39.6l15.84,85.3,8.12-85.3m0-6.32a6.32,6.32,0,0,0-6.29,5.72l-3.85,40.39-7.6-40.95a6.32,6.32,0,0,0-6.22-5.17h-39.6a6.32,6.32,0,0,0-6.24,5.32l-6.45,40-4.79-39.72a6.32,6.32,0,0,0-6.27-5.57l-.57,0-50.37,4.47a6.32,6.32,0,0,0-5.67,7.38l24,138.71a6.32,6.32,0,0,0,6.23,5.25h.23l57.68-2a6.32,6.32,0,0,0,6-5.18l5.93-32.39,6.39,37.59a6.32,6.32,0,0,0,6.23,5.26h.14l57.68-1.22a6.32,6.32,0,0,0,6.1-5.27L255,184.87a6.32,6.32,0,0,0-5.67-7.35l-50.16-4.47-.57,0Z"/><polygon class="cls-1" points="257.31 186.63 306.93 184.02 296.1 318.08 257.31 320.1 257.31 186.63"/><path class="cls-2" d="M304.64,186.25,294.15,316.07l-34.73,1.81V188.63l45.21-2.38m4.59-4.46-54,2.84V322.32l42.85-2.23,11.17-138.3Z"/><path class="cls-3" d="M309.23,181.79l-11.17,138.3-42.85,2.23V184.63l54-2.84m0-6.32h-.33l-54,2.84a6.32,6.32,0,0,0-6,6.32V322.32a6.32,6.32,0,0,0,6.32,6.32h.33l42.85-2.23a6.32,6.32,0,0,0,6-5.81l11.17-138.3a6.32,6.32,0,0,0-6.3-6.83Zm0,12.65h0Z"/><path class="cls-1" d="M317.87,316.38c.39-22.75.84-45.66,1.33-68.14s1.1-45.6,1.81-68.41h48.42c-1.45,13.9-2.87,28.05-4.23,42.12-1.42,14.75-2.44,29.84-3.05,44.85a2.11,2.11,0,0,0,2,2.19c3.19.14,6.4.21,9.53.21h9.44q5.71,0,11.21-.1,4.34-.08,8.81-.1l-3.88,41Z"/><path class="cls-2" d="M367.1,181.94c-1.37,13.15-2.71,26.52-4,39.81-1.42,14.79-2.45,29.92-3.06,45a4.22,4.22,0,0,0,4,4.38c3.2.14,6.44.21,9.62.21h9.44c3.8,0,7.58,0,11.25-.1,2.14,0,4.3-.07,6.46-.08L397.36,308,320,314.1c.39-22,.82-44.11,1.29-65.81.48-21.92,1.06-44.22,1.75-66.35h44m4.68-4.22h0Zm0,0H319q-1.12,35.44-1.88,70.47t-1.37,70.47l85.5-6.7,4.26-45.09q-5.69,0-11.17.1t-11.17.1H373.7q-4.67,0-9.44-.2.91-22.54,3-44.73t4.47-44.42Z"/><path class="cls-3" d="M371.78,177.73h0m0,0q-2.34,22.24-4.47,44.42t-3,44.73q4.77.21,9.44.2h9.44q5.69,0,11.17-.1t11.17-.1L401.22,312l-85.5,6.7q.61-35.44,1.37-70.47T319,177.73h52.8m0-6.32H319a6.32,6.32,0,0,0-6.32,6.12c-.74,23.5-1.37,47.23-1.88,70.53s-1,47-1.37,70.5a6.32,6.32,0,0,0,6.32,6.43l.49,0,85.5-6.7a6.32,6.32,0,0,0,5.8-5.71l4.26-45.09a6.32,6.32,0,0,0-6.3-6.92c-3.76,0-7.55,0-11.29.1s-7.32.1-11.05.1H373.7l-2.84,0c.62-12.73,1.54-25.48,2.74-38,1.42-14.74,2.91-29.57,4.43-44.1a6.33,6.33,0,0,0-6.25-7.26Zm0,12.65h0Z"/><path class="cls-1" d="M452.5,324.07A48.73,48.73,0,0,1,442,322.8c-3.87-.86-7.85-1.95-11.84-3.25s-7.89-2.71-11.59-4.21c-3.16-1.28-6-2.5-8.54-3.65l4-37.13a75,75,0,0,0,16.86,6.49,85.57,85.57,0,0,0,21.19,2.76q2,0,4.79-.16a24.27,24.27,0,0,0,5.73-1,13.36,13.36,0,0,0,5-2.72A7.55,7.55,0,0,0,470,274a6.88,6.88,0,0,0-1.75-4.7,11.25,11.25,0,0,0-3.87-2.76,21.71,21.71,0,0,0-4.84-1.46c-1.69-.32-3.36-.55-5-.69s-3.15-.21-4.55-.21h-3.25a38.25,38.25,0,0,1-15.07-2.88,34.16,34.16,0,0,1-11.58-8,36.56,36.56,0,0,1-7.53-12.2,43.17,43.17,0,0,1-2.71-15.45,44.89,44.89,0,0,1,4.6-20.52,48.14,48.14,0,0,1,12.36-15.47,56.6,56.6,0,0,1,17.87-9.84,65,65,0,0,1,20.95-3.44c3.23,0,6.64.12,10.12.35a98.4,98.4,0,0,1,20.28,3.53,59.29,59.29,0,0,1,7.78,2.81l-3.47,37.12c-3.91-1.22-8-2.28-12.18-3.15A74.85,74.85,0,0,0,473,215.42q-1.34,0-3.45.05c-1.45,0-3,.14-4.55.32a47.83,47.83,0,0,0-4.83.8,21.62,21.62,0,0,0-4.62,1.53,10.11,10.11,0,0,0-3.7,2.89,6.9,6.9,0,0,0-1.46,4.76,7,7,0,0,0,2.4,5.08,13.09,13.09,0,0,0,4.83,2.56,30.58,30.58,0,0,0,5.88,1.15c2,.21,4.09.33,6.12.37l2.88,0,2.68,0h.93a24.73,24.73,0,0,1,2.93.15,39.83,39.83,0,0,1,14,3.28,32,32,0,0,1,10.34,7.33,31.23,31.23,0,0,1,6.46,10.9,42.56,42.56,0,0,1,2.26,14.17c0,8.93-1.56,16.81-4.63,23.43a46.59,46.59,0,0,1-12.63,16.57,54.77,54.77,0,0,1-18.88,10A79.88,79.88,0,0,1,452.5,324.07Z"/><path class="cls-2" d="M465.7,178.49c3.21,0,6.56.12,10,.35a96.3,96.3,0,0,1,19.84,3.45,58.07,58.07,0,0,1,6.12,2.12l-3.09,33c-3.21-.93-6.52-1.75-9.9-2.46A77,77,0,0,0,473,213.31c-.91,0-2.07,0-3.51.05s-3.1.15-4.73.33a49.83,49.83,0,0,0-5.05.83,23.82,23.82,0,0,0-5.07,1.68,12.2,12.2,0,0,0-4.46,3.49,9.45,9.45,0,0,0,1.21,12.74,15.2,15.2,0,0,0,5.6,3,33,33,0,0,0,6.29,1.23c2.1.21,4.22.34,6.29.38l2.92,0,2.72,0h.89a22.42,22.42,0,0,1,2.67.13l.26,0a37.48,37.48,0,0,1,13.15,3.08,29.9,29.9,0,0,1,9.67,6.84,29.12,29.12,0,0,1,6,10.17A40.45,40.45,0,0,1,510,270.74c0,8.62-1.49,16.2-4.43,22.55a44.53,44.53,0,0,1-12.06,15.83,52.67,52.67,0,0,1-18.16,9.58A77.82,77.82,0,0,1,452.5,322a46.73,46.73,0,0,1-10-1.22c-3.8-.84-7.71-1.92-11.64-3.19s-7.81-2.69-11.45-4.16c-2.56-1-4.93-2-7.07-3l3.48-32.57a78.34,78.34,0,0,0,14.57,5.27,87.66,87.66,0,0,0,21.71,2.82c1.36,0,3-.05,4.91-.16a26.32,26.32,0,0,0,6.23-1.09,15.49,15.49,0,0,0,5.77-3.16,9.63,9.63,0,0,0,3.15-7.53,9,9,0,0,0-2.28-6.1,13.32,13.32,0,0,0-4.58-3.29A23.74,23.74,0,0,0,460,263c-1.75-.33-3.49-.57-5.19-.72s-3.28-.22-4.73-.22h-3.25a36.19,36.19,0,0,1-14.24-2.71,32.09,32.09,0,0,1-10.87-7.5,34.45,34.45,0,0,1-7.1-11.5A41.09,41.09,0,0,1,412,225.65a42.81,42.81,0,0,1,4.37-19.57,46,46,0,0,1,11.82-14.8,54.49,54.49,0,0,1,17.21-9.47,62.85,62.85,0,0,1,20.27-3.33m0-4.22a66.74,66.74,0,0,0-21.63,3.55A58.42,58.42,0,0,0,425.54,188a50,50,0,0,0-12.89,16.15,46.76,46.76,0,0,0-4.82,21.48,45.06,45.06,0,0,0,2.84,16.2,38.45,38.45,0,0,0,8,12.9,36.11,36.11,0,0,0,12.29,8.48,40.19,40.19,0,0,0,15.89,3h3.25c1.35,0,2.81.07,4.37.2s3.15.36,4.77.66a19.44,19.44,0,0,1,4.36,1.32,9.1,9.1,0,0,1,3.15,2.23,4.8,4.8,0,0,1,1.22,3.3,5.52,5.52,0,0,1-1.73,4.37,11.25,11.25,0,0,1-4.22,2.29,22,22,0,0,1-5.23.91q-2.74.15-4.67.15A83.06,83.06,0,0,1,431.43,279a71.38,71.38,0,0,1-19.14-7.87L407.82,313q4.36,2,10,4.32t11.73,4.26q6.1,2,12,3.3a50.66,50.66,0,0,0,10.91,1.32,81.66,81.66,0,0,0,24.12-3.45,56.6,56.6,0,0,0,19.6-10.36,48.49,48.49,0,0,0,13.2-17.31q4.82-10.41,4.82-24.32a44.43,44.43,0,0,0-2.38-14.88,33.16,33.16,0,0,0-6.9-11.63,33.94,33.94,0,0,0-11-7.82A41.45,41.45,0,0,0,479.31,233a26.39,26.39,0,0,0-3.19-.16h-1l-2.64,0-2.84,0q-2.95-.05-5.94-.36a28.62,28.62,0,0,1-5.48-1.07,11,11,0,0,1-4.06-2.13,5.24,5.24,0,0,1-.66-7,8,8,0,0,1,2.94-2.29,19.51,19.51,0,0,1,4.16-1.37,45.35,45.35,0,0,1,4.62-.76q2.29-.25,4.37-.3t3.4-.05a72.5,72.5,0,0,1,14.78,1.57A124.3,124.3,0,0,1,502.26,223l3.86-41.23a60.55,60.55,0,0,0-9.44-3.55,100.52,100.52,0,0,0-20.72-3.6q-5.28-.36-10.26-.36Z"/><path class="cls-3" d="M465.7,174.27q5,0,10.26.36a100.52,100.52,0,0,1,20.72,3.6,60.55,60.55,0,0,1,9.44,3.55L502.26,223a124.3,124.3,0,0,0-14.47-3.91A72.5,72.5,0,0,0,473,217.53q-1.32,0-3.4.05t-4.37.3a45.35,45.35,0,0,0-4.62.76,19.51,19.51,0,0,0-4.16,1.37,8,8,0,0,0-2.94,2.29,5.24,5.24,0,0,0,.66,7,11,11,0,0,0,4.06,2.13,28.62,28.62,0,0,0,5.48,1.07q3,.3,5.94.36l2.84,0,2.64,0h1a26.39,26.39,0,0,1,3.19.16,41.45,41.45,0,0,1,14.62,3.45,33.94,33.94,0,0,1,11,7.82,33.16,33.16,0,0,1,6.9,11.63,44.43,44.43,0,0,1,2.38,14.88q0,13.91-4.82,24.32a48.49,48.49,0,0,1-13.2,17.31,56.6,56.6,0,0,1-19.6,10.36,81.66,81.66,0,0,1-24.12,3.45,50.66,50.66,0,0,1-10.91-1.32q-5.94-1.32-12-3.3t-11.73-4.26q-5.64-2.29-10-4.32l4.47-41.84A71.38,71.38,0,0,0,431.43,279a83.06,83.06,0,0,0,20.66,2.69q1.93,0,4.67-.15a22,22,0,0,0,5.23-.91,11.25,11.25,0,0,0,4.22-2.29,5.52,5.52,0,0,0,1.73-4.37,4.8,4.8,0,0,0-1.22-3.3,9.1,9.1,0,0,0-3.15-2.23,19.44,19.44,0,0,0-4.36-1.32q-2.44-.46-4.77-.66c-1.56-.13-3-.2-4.37-.2h-3.25a40.19,40.19,0,0,1-15.89-3,36.11,36.11,0,0,1-12.29-8.48,38.45,38.45,0,0,1-8-12.9,45.06,45.06,0,0,1-2.84-16.2,46.76,46.76,0,0,1,4.82-21.48A50,50,0,0,1,425.54,188a58.42,58.42,0,0,1,18.53-10.2,66.74,66.74,0,0,1,21.63-3.55m0-6.32A73.36,73.36,0,0,0,442,171.84a65,65,0,0,0-20.52,11.31A56.52,56.52,0,0,0,407,201.32a53.22,53.22,0,0,0-5.51,24.34,51.57,51.57,0,0,0,3.26,18.45,44.91,44.91,0,0,0,9.28,15,42.55,42.55,0,0,0,14.41,10,46.65,46.65,0,0,0,18.37,3.55h3.25c1.15,0,2.44.06,3.82.18s2.74.31,4.15.58a13.25,13.25,0,0,1,2.95.88l.05,0a6.56,6.56,0,0,1-.89.34,15.78,15.78,0,0,1-3.73.65c-1.71.09-3.17.14-4.32.14A77.12,77.12,0,0,1,433,272.89a65.39,65.39,0,0,1-17.46-7.17,6.32,6.32,0,0,0-9.54,4.75l-4.47,41.84a6.32,6.32,0,0,0,3.62,6.4c3,1.38,6.43,2.88,10.3,4.44s7.95,3.05,12.15,4.42,8.49,2.55,12.62,3.46a57.21,57.21,0,0,0,12.28,1.47,88.34,88.34,0,0,0,26-3.73,63.15,63.15,0,0,0,21.76-11.52,55,55,0,0,0,14.92-19.53c3.59-7.74,5.41-16.82,5.41-27a50.93,50.93,0,0,0-2.74-17,39.6,39.6,0,0,0-8.23-13.82,40.39,40.39,0,0,0-13-9.28,47.87,47.87,0,0,0-16.66-4,33.08,33.08,0,0,0-3.77-.19H475l-2.51,0-2.73,0c-1.78,0-3.6-.14-5.41-.32a22.46,22.46,0,0,1-4.25-.82,15.42,15.42,0,0,1,1.87-.52,39.19,39.19,0,0,1,4-.66c1.33-.15,2.61-.24,3.83-.27s2.4,0,3.24,0a66.49,66.49,0,0,1,13.49,1.44A118.5,118.5,0,0,1,500.23,229a6.32,6.32,0,0,0,8.32-5.4l3.86-41.23a6.32,6.32,0,0,0-3.57-6.3,67.15,67.15,0,0,0-10.42-3.93,106.85,106.85,0,0,0-22-3.83c-3.65-.25-7.24-.37-10.68-.37Z"/><path class="cls-1" d="M581.77,312.7a62,62,0,0,1-16.84-2.25,64.18,64.18,0,0,1-15-6.34,60.35,60.35,0,0,1-12.61-9.81,61.41,61.41,0,0,1-9.62-12.76,66.21,66.21,0,0,1-6.2-15.1,63.64,63.64,0,0,1-2.21-16.81,68.81,68.81,0,0,1,8-32.31,67.14,67.14,0,0,1,9.4-13.39A62.08,62.08,0,0,1,549,193.41a59.34,59.34,0,0,1,14.76-6.87,56.78,56.78,0,0,1,16.74-2.44,73.92,73.92,0,0,1,26.11,4.43,54.82,54.82,0,0,1,32.8,32.36,75.33,75.33,0,0,1,2.51,43.4,68,68,0,0,1-6,15.61,65,65,0,0,1-9.44,13.32,60.25,60.25,0,0,1-12.46,10.35,60.46,60.46,0,0,1-32.34,9.12Zm0-88.14a22.38,22.38,0,0,0-9.41,1.92,21.78,21.78,0,0,0-7.13,5.23,22.92,22.92,0,0,0-4.53,7.71,27.38,27.38,0,0,0-1.54,9.19,33.17,33.17,0,0,0,1.3,9.11,27.61,27.61,0,0,0,4,8.36,21.59,21.59,0,0,0,6.69,6.18,18.29,18.29,0,0,0,9.45,2.42,21.27,21.27,0,0,0,9.51-2.1A21.53,21.53,0,0,0,597.2,267a25.44,25.44,0,0,0,4.43-8,28.78,28.78,0,0,0,1.54-9.32,30.81,30.81,0,0,0-1.36-9.1,25.5,25.5,0,0,0-4-8,21.23,21.23,0,0,0-6.7-5.75A19.1,19.1,0,0,0,581.77,224.56Z"/><path class="cls-2" d="M580.55,186.21a71.84,71.84,0,0,1,25.37,4.3,52.69,52.69,0,0,1,31.58,31.15,73.23,73.23,0,0,1,2.42,42.12,66,66,0,0,1-5.77,15.13A62.82,62.82,0,0,1,625,291.8a58.1,58.1,0,0,1-12,10,58.38,58.38,0,0,1-31.23,8.8,59.86,59.86,0,0,1-16.27-2.18,62.12,62.12,0,0,1-14.5-6.13,58.29,58.29,0,0,1-12.17-9.47,59.21,59.21,0,0,1-9.29-12.32,64,64,0,0,1-6-14.62,61.48,61.48,0,0,1-2.13-16.25,66.7,66.7,0,0,1,7.78-31.32,65,65,0,0,1,9.1-13,60,60,0,0,1,11.91-10.15,57.2,57.2,0,0,1,14.23-6.62,54.64,54.64,0,0,1,16.12-2.35m0,90.58A23.37,23.37,0,0,0,591,274.47a23.65,23.65,0,0,0,7.83-6.18,27.58,27.58,0,0,0,4.8-8.68,30.88,30.88,0,0,0,1.65-10,32.94,32.94,0,0,0-1.46-9.73,27.64,27.64,0,0,0-4.38-8.62,23.32,23.32,0,0,0-7.37-6.32,21.16,21.16,0,0,0-10.3-2.5,24.49,24.49,0,0,0-10.29,2.11,23.82,23.82,0,0,0-7.82,5.73,25,25,0,0,0-5,8.41A29.49,29.49,0,0,0,557,248.6a35.32,35.32,0,0,0,1.38,9.69,29.66,29.66,0,0,0,4.26,9,23.68,23.68,0,0,0,7.34,6.78,20.37,20.37,0,0,0,10.53,2.72m0-94.79a58.58,58.58,0,0,0-17.36,2.54,61.14,61.14,0,0,0-15.28,7.11,63.9,63.9,0,0,0-12.74,10.87,68.88,68.88,0,0,0-9.7,13.81,70.92,70.92,0,0,0-8.28,33.31A65.39,65.39,0,0,0,519.47,267a67.93,67.93,0,0,0,6.4,15.59,63.13,63.13,0,0,0,10,13.2,62.21,62.21,0,0,0,13,10.15,66,66,0,0,0,15.48,6.55,63.77,63.77,0,0,0,17.42,2.34,62.59,62.59,0,0,0,33.46-9.44,62,62,0,0,0,12.89-10.71,66.72,66.72,0,0,0,9.75-13.76A69.88,69.88,0,0,0,644,264.8a77.44,77.44,0,0,0-2.59-44.68,56.9,56.9,0,0,0-34-33.56A75.68,75.68,0,0,0,580.55,182Zm0,90.58a16.14,16.14,0,0,1-8.38-2.13,19.4,19.4,0,0,1-6-5.58,25.35,25.35,0,0,1-3.66-7.72,31,31,0,0,1-1.22-8.53,25.17,25.17,0,0,1,1.42-8.48,20.7,20.7,0,0,1,4.11-7,19.54,19.54,0,0,1,6.45-4.72,20.22,20.22,0,0,1,8.53-1.73,16.92,16.92,0,0,1,8.28,2,19,19,0,0,1,6,5.18,23.33,23.33,0,0,1,3.71,7.31,28.6,28.6,0,0,1,1.27,8.48,26.54,26.54,0,0,1-1.42,8.63,23.27,23.27,0,0,1-4.06,7.36,19.37,19.37,0,0,1-6.45,5.08,19.12,19.12,0,0,1-8.58,1.88Z"/><path class="cls-3" d="M580.55,182a75.68,75.68,0,0,1,26.86,4.57,56.9,56.9,0,0,1,34,33.56A77.44,77.44,0,0,1,644,264.8a69.88,69.88,0,0,1-6.14,16.09,66.72,66.72,0,0,1-9.75,13.76,62,62,0,0,1-12.89,10.71,62.59,62.59,0,0,1-33.46,9.44,63.77,63.77,0,0,1-17.42-2.34,66,66,0,0,1-15.48-6.55,62.21,62.21,0,0,1-13-10.15,63.13,63.13,0,0,1-10-13.2,67.93,67.93,0,0,1-6.4-15.59,65.39,65.39,0,0,1-2.28-17.36,70.92,70.92,0,0,1,8.28-33.31,68.88,68.88,0,0,1,9.7-13.81,63.9,63.9,0,0,1,12.74-10.87,61.14,61.14,0,0,1,15.28-7.11A58.58,58.58,0,0,1,580.55,182m0,90.58a19.12,19.12,0,0,0,8.58-1.88,19.37,19.37,0,0,0,6.45-5.08,23.27,23.27,0,0,0,4.06-7.36,26.54,26.54,0,0,0,1.42-8.63,28.6,28.6,0,0,0-1.27-8.48,23.33,23.33,0,0,0-3.71-7.31,19,19,0,0,0-6-5.18,16.92,16.92,0,0,0-8.28-2,20.22,20.22,0,0,0-8.53,1.73,19.54,19.54,0,0,0-6.45,4.72,20.7,20.7,0,0,0-4.11,7,25.17,25.17,0,0,0-1.42,8.48,31,31,0,0,0,1.22,8.53,25.35,25.35,0,0,0,3.66,7.72,19.4,19.4,0,0,0,6,5.58,16.14,16.14,0,0,0,8.38,2.13m0-96.9a65.16,65.16,0,0,0-19.23,2.82,67.75,67.75,0,0,0-16.86,7.84,70.53,70.53,0,0,0-14,11.93,75.53,75.53,0,0,0-10.58,15.07,77.25,77.25,0,0,0-9,36.28,72,72,0,0,0,2.51,19,74.57,74.57,0,0,0,7,17,69.75,69.75,0,0,0,10.94,14.52,68.83,68.83,0,0,0,14.37,11.18,72.65,72.65,0,0,0,17,7.18,70.39,70.39,0,0,0,19.13,2.57,68.92,68.92,0,0,0,36.81-10.4,68.64,68.64,0,0,0,14.2-11.8,73.37,73.37,0,0,0,10.67-15.06,76.55,76.55,0,0,0,6.7-17.55,83.74,83.74,0,0,0-2.84-48.51,63.22,63.22,0,0,0-37.67-37.17,82.31,82.31,0,0,0-29.09-5Zm0,90.58a9.88,9.88,0,0,1-5.16-1.25,13,13,0,0,1-4.09-3.79,19.16,19.16,0,0,1-2.74-5.81,24.78,24.78,0,0,1-1-6.79,18.72,18.72,0,0,1,1.06-6.36,14.31,14.31,0,0,1,2.86-4.89,13.17,13.17,0,0,1,4.39-3.2,14.06,14.06,0,0,1,5.89-1.15,10.63,10.63,0,0,1,5.23,1.2,12.66,12.66,0,0,1,4.06,3.47,16.9,16.9,0,0,1,2.69,5.34,22.4,22.4,0,0,1,1,6.61,20.36,20.36,0,0,1-1.08,6.59,16.84,16.84,0,0,1-3,5.38,13,13,0,0,1-4.37,3.43,12.79,12.79,0,0,1-5.78,1.23Z"/><path class="cls-1" d="M653.38,321l3.55-139.87,47.42-2.28,34.53,71.85a2.11,2.11,0,0,0,1.9,1.19,2.05,2.05,0,0,0,.44,0,2.11,2.11,0,0,0,1.66-2l1.58-67.06,43.64-1.48L781,314.91l-49.81,4.56-27.86-72.23a2.11,2.11,0,0,0-2-1.35l-.33,0a2.11,2.11,0,0,0-1.78,2L694.93,321Z"/><path class="cls-2" d="M703.06,181.06,737,251.65a4.22,4.22,0,0,0,8-1.73l1.53-65.07,39.35-1.33L779,313l-46.41,4.25-27.28-70.75a4.22,4.22,0,0,0-8.14,1.27l-4.23,71.18h-37.4L659,183.17l44.07-2.11m2.59-4.35-50.77,2.44-3.66,144h45.7L701.38,248l28.43,73.72L783,316.84l7.31-137.69-47.93,1.63-1.62,69-35.13-73.11Z"/><path class="cls-3" d="M705.65,176.71l35.13,73.11,1.62-69,47.93-1.63L783,316.84l-53.21,4.87L701.38,248l-4.47,75.14h-45.7l3.66-144,50.77-2.44m0-6.32h-.3l-50.77,2.44a6.32,6.32,0,0,0-6,6.16L644.9,323a6.32,6.32,0,0,0,6.32,6.48h45.7a6.32,6.32,0,0,0,6.31-5.95L706,277.45,723.92,324a6.32,6.32,0,0,0,5.9,4l.58,0,53.21-4.87a6.32,6.32,0,0,0,5.74-6l7.31-137.69a6.32,6.32,0,0,0-6.31-6.66h-.21l-47.93,1.63a6.32,6.32,0,0,0-6.11,6.17l-1,42.73L711.35,174a6.32,6.32,0,0,0-5.7-3.58Z"/></svg>