<svg xmlns="http://www.w3.org/2000/svg" xmlns:xlink="http://www.w3.org/1999/xlink" viewBox="0 0 599.57 473.42"><defs><linearGradient id="linear-gradient" x1="56.61" y1="261.55" x2="599.57" y2="261.55" gradientUnits="userSpaceOnUse"><stop offset="0" stop-color="#00291f"/><stop offset="0.35" stop-color="#011d17"/><stop offset="0.85" stop-color="#030408"/></linearGradient><linearGradient id="linear-gradient-2" x1="189.98" y1="263.4" x2="500.46" y2="263.4" gradientUnits="userSpaceOnUse"><stop offset="0" stop-color="#fff139"/><stop offset="0.13" stop-color="#fee52d"/><stop offset="0.41" stop-color="#fed31a"/><stop offset="0.7" stop-color="#fdc90f"/><stop offset="1" stop-color="#fdc50b"/></linearGradient><linearGradient id="linear-gradient-3" x1="3466.14" y1="286.2" x2="3405.86" y2="331.41" gradientTransform="matrix(-1, 0, 0, 1, 3902.7, 0)" gradientUnits="userSpaceOnUse"><stop offset="0" stop-color="#4e9afd"/><stop offset="1" stop-color="#186ad2"/></linearGradient><linearGradient id="linear-gradient-4" x1="3377.76" y1="324.12" x2="3368.22" y2="413.8" gradientTransform="matrix(-1, 0, 0, 1, 3902.7, 0)" gradientUnits="userSpaceOnUse"><stop offset="0.01" stop-color="#ffd418"/><stop offset="0.54" stop-color="#f0bc3c"/><stop offset="1" stop-color="#ffac00"/></linearGradient></defs><title>Sekme</title><g style="isolation:isolate"><g id="Layer_1" data-name="Layer 1"><path d="M162.61,207c88.68.79,176.74-31.69,217.48-103.58s126.8-74.78,182,9.92c43.92,67.44,80,273.24-78.77,328.39-159.59,55.42-272.64,33.48-365.55-30.32C5.41,334.33,64.26,206.17,162.61,207Z" style="opacity:0.05;fill:url(#linear-gradient)"/><path d="M158.41,227c-15.31-7.36-22.65-27-35.23-31.17-15.59-5.39-20,12-45.17,7.72-21.15-3.62-27.58-27.41-62.95-20.05-10.8,2.25-18,11.38-13.91,22.33,3,10.89,18,17.79,27,23.35C36,233.62,43.05,236,47.74,244.33c0,.09.1.19.14.28,3.16,6.75,1.9,12.78,9.27,17.72,17.27,12.64,38.79-7.43,58.44-6.84,13.86.42,13.47,14.81,30.13,19,16.51,4.13,11.09-10.64,45.71,2.77a2.41,2.41,0,0,0,3.13-1.38h0a2.43,2.43,0,0,0-.51-2.53C169.82,248,181,237.8,158.41,227Z" style="fill:#4a82d6"/><path d="M158.41,227c-15.31-7.36-22.65-27-35.23-31.17-15.59-5.39-20,12-45.17,7.72-21.15-3.62-27.58-27.41-62.95-20.05-10.8,2.25-18,11.38-13.91,22.33,3,10.89,18,17.79,27,23.35C36,233.62,43.05,236,47.74,244.33c0,.09.1.19.14.28,3.16,6.75,1.9,12.78,9.27,17.72,17.27,12.64,38.79-7.43,58.44-6.84,13.86.42,13.47,14.81,30.13,19,16.51,4.13,11.09-10.64,45.71,2.77a2.41,2.41,0,0,0,3.13-1.38h0a2.43,2.43,0,0,0-.51-2.53C169.82,248,181,237.8,158.41,227Z" style="fill:#0cab9d"/><path d="M177.94,260.54c-10.92-5.47-17.74-16.05-27.61-22.92-4.66-3.24-10.05-5.72-15.8-5.8-6.3-.09-12.6,3.07-18.81.82-4.86-1.75-8.41-5.78-13-8.06-5.35-2.67-10.21-.78-15.79-.19-12,1.26-21.23-8.8-30.17-15.22a63.12,63.12,0,0,0-37.5-11.77c-.37,0-.21,1,.21,1a62.59,62.59,0,0,1,35.87,10.78C63.87,215,71.77,224,82.53,225.33c5.75.72,11.41-2.39,17.07-1,5.13,1.27,8.85,5.44,13.34,8,5,2.81,10,2.14,15.41,1.18a26.45,26.45,0,0,1,18.74,3.06c11.59,6.63,18.72,18.88,30.75,24.9.45.23.44-.74.1-.9Z" style="fill:#4d9ffd;opacity:0.5;mix-blend-mode:screen"/><path d="M307.46,329.92c-50.37,5.32-58.43,9.67-70.5,4.45-15.39-6.65-31.57-5-47.08-11.36s-32.36-11.22-48.91-8.53c-5.24.85-11,3-11.77,9.11a10.08,10.08,0,0,0,1.94,7c3.65,5.08,9.6,6.79,15.3,8.36l19,5.25c6.2,1.71,5.8,10.84-.56,11.75l-.16,0c-5.33.72-10.74-.33-16-1.5-11.44-2.53-22.89-5.61-34.61-5.62C100,348.8,85,353.91,78,367.13a24.31,24.31,0,0,0-2.53,15.36c2.47,14.62,16.14,19.5,28.26,18.4,8.52-.77,16.58-4.06,24.63-7,19.66-7.11,36.49.74,57.39,1.28C243.39,396.69,307.46,329.92,307.46,329.92Z" style="fill:#7de6d2"/><path d="M91.08,376.52a.5.5,0,0,1-.06-1c35.31-4,71.82-8.2,106.31-19.13,1.65-.53,3.38-1,5.21-1.48,9.47-2.53,22.43-6,46.23-23.56a.5.5,0,0,1,.6.81c-24,17.67-37,21.17-46.57,23.72-1.82.48-3.54.94-5.17,1.46-34.58,11-71.14,15.14-106.5,19.17Z" style="fill:#0cab9d"/><path d="M149.17,168a20.61,20.61,0,0,0,3.75,2.33c6.16,3,13.21,3.45,18.11,9,3.26,3.47,5,8.13,7.48,12.27a21.61,21.61,0,0,0,1.68,2.62c7.57,10.39,15,11.59,23,11.41,3.27-.08,6.65-.39,10.13-.39a33.79,33.79,0,0,1,17.09,4,46.57,46.57,0,0,1,12.14,9.87,2.54,2.54,0,0,0,3.22.21,2.75,2.75,0,0,0,1.25-2.79c-2.13-9.58-6.3-15.87-11.32-20.6-14.11-13.35-34.94-14.41-36.2-42-.26-5.91,1-10.09,0-14.3a15,15,0,0,0-3.61-6.61c-4.27-4.6-10.4-6.64-15.87-10.31-14.8-10.55-7.74-27.83-9.06-44.26-.88-13.41-12.94-22.15-22.8-29.74-12.34-9.08-12.31-25.44-20.63-37.61s-29-17.08-40-.72c-11.68,16.33-5.26,36.75-1.91,53.31A38.66,38.66,0,0,0,90.1,75.42c6.16,10.75,16.73,18.41,25.86,27.52A65.33,65.33,0,0,1,129.54,122a55.63,55.63,0,0,1,4.22,13.37c.2,1.1.41,2.19.63,3.29C136.52,150.15,139,160.38,149.17,168Z" style="fill:#7de6d2"/><path d="M97.05,10.76c.33,8.4.68,17,3.09,25.07a39,39,0,0,0,11.44,18c5.33,4.89,11.48,9,16.09,14.59a28.24,28.24,0,0,1,5.51,11.47c.77,3.11,1.5,6.39,3.5,9,2.34,3,6.09,4.35,9.1,6.57a26,26,0,0,1,7,8.26c3.51,6.18,5.38,13.12,8.53,19.46a35.45,35.45,0,0,0,5,7.75c2.74,3.09,6.7,5.09,8.79,8.74,2.3,4,2.36,8.89,2.86,13.37a40.3,40.3,0,0,0,2.61,10.88c7.44,18.32,26.44,27.39,43.24,35.3.47.22.45-.75.11-.91-15.58-7.33-32.83-15.4-41.26-31.36a37.63,37.63,0,0,1-4-13.38c-.42-3.63-.56-7.34-1.6-10.86-2.1-7.11-9.22-10.07-13.07-16.06-6.82-10.63-7.92-25.53-19.25-32.9-3.94-2.55-7.79-4.27-9.56-9-1.32-3.49-1.72-7.25-3.23-10.68-2.58-5.86-7.37-10.26-12.19-14.29C112.88,54,105.9,48.57,102.29,40.08,98.39,30.93,98,20.69,97.66,10.9c0-.51-.63-.81-.61-.14Z" style="fill:#4d9ffd;opacity:0.5;mix-blend-mode:screen"/><path d="M213.31,205.23a33.79,33.79,0,0,1,17.09,4c.55-8.46,3.39-10.22,5.29-13.31-14.11-13.35-34.94-14.41-36.2-42-.26-5.91,1-10.09,0-14.3-4.21,8.84-11.77,10.65-11.17,19.67.51,9.31,12.42,17.93,14.55,29.67C204.67,198.73,208.25,201.2,213.31,205.23Z" style="fill:#5b4fcf;opacity:0.37;mix-blend-mode:multiply"/><path d="M241.76,332.86S178.54,319,129.91,324.23c-1.54.16.34-9.42.34-9.42s-10,10.64-12.55,11C91,330.12,64.91,339.33,47.14,357.38c0,0,32.34-132.89,209.5-113.13Z" style="fill:#5082d8"/><path d="M278.52,340s-28.33-12.71-63.69-40.32c-1.41-1.1,5-9.59,5-9.59s-14.09,2.3-16.54.24C162.76,256.2,116.4,203.57,93.05,129.46c0,0,38.81,1.65,93.13,21.48,2.32.85,8.53,12.44,8.53,12.44s2.52-8.23,4.56-7.41C249.06,176,309.41,211.15,364.49,272.61Z" style="fill:#5291f2"/><g style="opacity:0.4;mix-blend-mode:multiply"><path d="M93.05,131.27c23.78,10.55,46.69,23,69.05,36.35s44,27.91,65,43.24c10.58,7.61,20.65,15.87,30.91,23.89L273,247.33c2.48,2.11,5,4.17,7.45,6.32l7.18,6.62c19.49,17.3,37.4,36.28,54.58,55.78l-13.77-13.81-6.84-6.93c-2.33-2.27-4.75-4.43-7.11-6.66l-14.16-13.36L285.7,262.45c-9.66-8.66-19.86-16.7-29.81-25-10.29-7.9-20.4-16-31-23.53-20.78-15.52-42.32-30-64.31-43.81Q144.1,159.71,127.22,150T93.05,131.27Z" style="fill:#5082d8"/><path d="M241.26,223.72c-6.44-1.57-12.86-3-19.26-4.38s-12.82-2.63-19.27-3.67-12.91-1.84-19.4-2.49-13-.78-19.67-.76a86.46,86.46,0,0,1,19.8-2.19,131,131,0,0,1,19.88,1.71C216.44,214.21,229.34,217.86,241.26,223.72Z" style="fill:#5082d8"/><path d="M179.05,181.12c-4.58-.28-9.14-.44-13.68-.61s-9.07-.21-13.59-.12-9,.33-13.55.69-9,1.07-13.51,1.91A59.39,59.39,0,0,1,138,179.05a90.87,90.87,0,0,1,13.77-1.28A96.31,96.31,0,0,1,179.05,181.12Z" style="fill:#5082d8"/><path d="M297.37,270.88a124.54,124.54,0,0,0-17.56-6,114.63,114.63,0,0,0-18-3.34,108.54,108.54,0,0,0-18.3-.58A160.36,160.36,0,0,0,225,263a69.71,69.71,0,0,1,18.18-5,75,75,0,0,1,19-.24,78,78,0,0,1,18.49,4.3A62.65,62.65,0,0,1,297.37,270.88Z" style="fill:#5082d8"/><path d="M241.26,223.72a244.18,244.18,0,0,0-14.85-22.4c-2.62-3.58-5.47-7-8.42-10.31s-6.14-6.46-9.31-9.8a50.89,50.89,0,0,1,11.38,7.7,65.24,65.24,0,0,1,9.37,10.14,72.91,72.91,0,0,1,7.22,11.73A53.68,53.68,0,0,1,241.26,223.72Z" style="fill:#5082d8"/><path d="M296.67,269.63c-2.44-4.92-5-9.73-7.46-14.54s-5.11-9.51-7.86-14.14-5.69-9.11-8.76-13.53a160.68,160.68,0,0,0-10.21-12.63,59.87,59.87,0,0,1,12.52,10.79A95.42,95.42,0,0,1,284.6,239,101.2,101.2,0,0,1,296.67,269.63Z" style="fill:#5082d8"/></g><g style="opacity:0.5;mix-blend-mode:screen"><path d="M74.35,328.3c8.06-11,19.13-19.56,30.88-26.5a147.78,147.78,0,0,1,38.05-15.25l10.05-2.13c3.35-.74,6.78-1,10.16-1.47a168.35,168.35,0,0,1,20.44-1.33c3.41-.22,6.82.12,10.23.24l10.2.5c6.76.86,13.5,1.79,20.19,2.85-6.8-.21-13.54-.77-20.29-1l-10.13,0c-3.38.06-6.75-.12-10.1.27-6.71.63-13.45.74-20.07,2-3.31.56-6.68.78-10,1.55l-9.82,2.17a171.46,171.46,0,0,0-37.55,14.11,99,99,0,0,0-8.74,5c-1.42.91-2.87,1.76-4.26,2.71L89.55,315A98.72,98.72,0,0,0,74.35,328.3Z" style="fill:#4d9ffd"/></g><g style="opacity:0.5;mix-blend-mode:screen"><path d="M183.7,283.31c-3.68,5.87-7.27,11.43-10.27,17.3a83.89,83.89,0,0,0-4,9,82.51,82.51,0,0,0-2.7,9.71c-1.64-6.85.15-14.23,3.31-20.43a46.15,46.15,0,0,1,5.86-8.67A35.05,35.05,0,0,1,183.7,283.31Z" style="fill:#4d9ffd"/></g><path d="M128.59,106.93c2.23-.12,17.38-11.35,23.22-15.13A15.9,15.9,0,0,0,156.27,88a5.63,5.63,0,0,0,.85-5.53c-1-2.19-2.76-4.39-7.1-4.38-7.55,0-10.17,2.5-13.84,6.3C124,97,128.59,106.93,128.59,106.93Z" style="fill:#0cab9d"/><path d="M196.55,152.22c6.6,3,13.65,5.92,20.83,5,2.79-.36,5.82-1.62,6.75-4.27.79-2.26-.3-4.86-2.09-6.45a15,15,0,0,0-6.5-2.93c-8.78-2.14-21.12-1-29.82,1.51C185.72,145.08,192.61,150.45,196.55,152.22Z" style="fill:#0cab9d"/><path d="M240,54.73c-2.94-1.86-6.19-4.35-6.19-7.83s3.64-6.15,7.13-6.17,6.74,1.89,9.36,4.19C261.43,54.67,260,65.79,260,65.79S243.3,56.8,240,54.73Z" style="fill:#0cab9d"/><path d="M248.78,25c-2.58-1.11-5.25-2.45-6.77-4.82a4.63,4.63,0,0,1-.7-3.9c.76-2.16,2.12-4.1,7.56-3.11,17.24,3.12,21,14.93,21,14.93S253.35,27,248.78,25Z" style="fill:#0cab9d"/><path d="M299.28,51.1a27.23,27.23,0,0,0,18.42-9.44,17,17,0,0,0,3.7-6.85,7.51,7.51,0,0,0-2-7.21c-2.42-2.08-6.26-1.75-8.93,0s-4.38,4.63-5.77,7.51C302.84,39,299.28,51.1,299.28,51.1Z" style="fill:#0cab9d"/><path d="M175.82,303.74a.46.46,0,0,1-.33-.13l-50.23-44.28c-8.45-7.45-18-15.89-23.8-26.56-11.28-20.89-6.62-50.46,11.32-71.91,18.17-21.72,45.68-33.1,64.8-39.77,7.83-2.74,15.88-5.24,23.68-7.67,16.23-5,33-10.28,48.55-17.8,18.42-8.92,29.4-19.89,32.64-32.62A32.37,32.37,0,0,0,253,22.69a.49.49,0,0,1-.47-.52.48.48,0,0,1,.53-.47,33.36,33.36,0,0,1,30.35,41.55c-3.32,13-14.48,24.22-33.17,33.27-15.6,7.55-32.42,12.79-48.7,17.85-7.78,2.43-15.83,4.93-23.64,7.66-19,6.63-46.35,17.94-64.36,39.47-17.69,21.14-22.3,50.25-11.21,70.79,5.68,10.52,14.78,18.54,23.58,26.29l50.23,44.28a.51.51,0,0,1,0,.71A.5.5,0,0,1,175.82,303.74Z" style="fill:#076356"/><path d="M280.45,70.32a.46.46,0,0,1-.27-.09.5.5,0,0,1-.14-.69c3.41-5.1,8.57-9.63,13.56-14,7-6.16,14.27-12.53,16.91-20.63a.5.5,0,0,1,.63-.32.5.5,0,0,1,.32.63c-2.72,8.36-10.09,14.82-17.2,21.07-4.95,4.34-10.06,8.83-13.39,13.81A.49.49,0,0,1,280.45,70.32Z" style="fill:#076356"/><path d="M255.21,93.9a.54.54,0,0,1-.37-.16.5.5,0,0,1,0-.71c9.49-8.62,8.72-22.36,2.49-30.67a50.82,50.82,0,0,0-6.48-6.72c-1.43-1.31-2.9-2.66-4.25-4.09a.49.49,0,0,1,0-.7.5.5,0,0,1,.71,0c1.32,1.4,2.78,2.74,4.19,4a51.09,51.09,0,0,1,6.61,6.86c6.5,8.66,7.29,23-2.62,32A.5.5,0,0,1,255.21,93.9Z" style="fill:#076356"/><path d="M209.67,150.05h0c-18.36-.72-37.71-7.93-53.11-19.8a.5.5,0,0,1,.61-.79c15,11.57,34.65,18.89,52.53,19.59a.5.5,0,0,1,0,1Z" style="fill:#076356"/><path d="M123,151.09a.5.5,0,0,1-.47-.34c-6.9-20.33.55-44.46,17.7-57.38a.51.51,0,0,1,.7.1.5.5,0,0,1-.1.7c-16.82,12.66-24.11,36.32-17.35,56.26a.5.5,0,0,1-.31.63A.51.51,0,0,1,123,151.09Z" style="fill:#076356"/><circle cx="345.22" cy="263.4" r="155.24" style="fill:url(#linear-gradient-2)"/><path d="M332.65,322.69a12,12,0,0,1-8.52-3.54L272.8,267.83a12.06,12.06,0,0,1,17.06-17.06l42.79,42.8,85.94-85.93a12.06,12.06,0,1,1,17.05,17.06l-94.46,94.45A12,12,0,0,1,332.65,322.69Z" style="fill:#fff"/><path d="M464.15,286.17c-5.11,1.33-24.45.55-20.76-9,4.11-10.62,15.08-1.34,19.78,4.55a132.77,132.77,0,0,1-2-24.07c-3.48-4.18-10.82-30.74,3.65-29.42,19,1.72,2.16,26.86-2.21,29.71,0,6.13.42,18.26,3.19,28.79.59-6.69,7.26-25.72,16.13-19,12.87,9.74-11.75,21.49-15.48,21.29a36.49,36.49,0,0,0,4.67,10.21c1.42,2,3,4.4,4.64,7l.08.09c.83-7,7.4-25.14,16.09-18.57,12,9.09-8.65,19.94-14.49,21.17A168.27,168.27,0,0,1,487.67,328c.4-6.36,12.89-19.37,17.85-11.93,2.76,4.15-11.87,17.66-16.69,14.64,2.75,6.72,4.4,13,3.83,17.58-.21,1.69-.52,3.68-.88,5.84,3.42-3.78,15.77-16.45,19.45-6.64,3,8.13-7.14,12.85-11.42,12.85-3.36,0-6.91-3.17-8.3-4.56l-.62,3.6c-1.72,10-3.79,22.06-3.18,29.31,2.91-5.66,15.94-29.22,23.52-14.07,3.88,7.77-7.14,14.28-11.42,15.71-3.52,1.17-9.8.12-11.95-.3a12.5,12.5,0,0,0,.49,2.21,84.17,84.17,0,0,0,8.48,17,.72.72,0,0,1-.59,1.11.72.72,0,0,1-.6-.32,91.77,91.77,0,0,1-7.24-13.58c-3.36-.42-16.29-2.19-20-4.66-4.28-2.86-11.95-12.24-5.71-15.71,9.66-5.37,19.79,8.9,24.22,16.31-1.65-5.53-.19-16.61,1.53-27-3.46,1-14.7-1-18.61-3.58-4.29-2.86-11.67-10.26-7.14-14.28,11.35-10.09,23.35,11.28,26,16.41.27-1.62.55-3.21.81-4.76.72-4.15,1.39-8.06,1.76-11,.54-4.25-1.05-10.38-3.88-17.24a43.64,43.64,0,0,1-18.26,1.62c-10-1.42-15.06-9.21-11.42-12.85,6.2-6.2,24.51,6.64,29.24,10.14a158.23,158.23,0,0,0-11.35-21.22c-5.83,1.34-29,.85-25.89-8.37s15-3,22,2.39c-.58-.85-1.15-1.69-1.73-2.52A42.5,42.5,0,0,1,464.15,286.17Z" style="fill:url(#linear-gradient-3)"/><path d="M505.52,374.6c12-4.8,14.92,13.55,15.55,19.57,2.64-8.78,3.76-19.45,2.57-28.15-1.83,0-8.9-.37-13.84-2.84-5.71-2.86-9.23-14.3-4.28-15.71,8.32-2.38,15.64,12,17.87,17-.2-1.11-.43-2.19-.71-3.21A127.54,127.54,0,0,1,519,337.46c-2.26,0-8.55-.26-12-1.42-4.29-1.42-11.54-12.61-5.72-14.28,8-2.29,15.14,9.23,17.62,13.85-.48-8.83-.11-17.32,1.39-23.11a55.86,55.86,0,0,1-1.87-12.16c0-5.71,6.63-16.95,12.85-11.42,11.37,10.11-5.67,21.92-9.75,24.51-1.38,5.7-1.69,13.93-1.19,22.47,2.55-6.42,12.86-29.54,25.22-18.42,4.75,4.27-5.71,14.28-12.85,17.14a40.6,40.6,0,0,1-12.27,2.85,125.81,125.81,0,0,0,3.68,23.38c.32,1.19.58,2.46.8,3.76,2.71-5.46,15.3-28.68,29.21-18.57,5.77,4.2-5.71,14.28-11.42,17.14-4.91,2.45-14.89,2.58-17.62,2.56,1.19,8.66.12,19.26-2.46,28.15,4.2-6.35,16.46-22.64,25.79-12.15,5.53,6.22-8.79,11.5-12.85,12.85-3.58,1.19-11.24,1.55-13.66,1.64-2,6.13-4.8,11.22-8,13.9a.67.67,0,0,1-.46.17.74.74,0,0,1-.55-.26.71.71,0,0,1,.09-1c3.08-2.57,5.72-7.42,7.66-13.29a74.11,74.11,0,0,1-10.77-5.44C505.52,387.45,498.89,377.25,505.52,374.6Z" style="fill:url(#linear-gradient-4)"/></g></g></svg>