<svg xmlns="http://www.w3.org/2000/svg" xmlns:xlink="http://www.w3.org/1999/xlink" viewBox="2 2 599.57 473.42"><defs><linearGradient id="linear-gradient" x1="56.61" y1="261.55" x2="599.57" y2="261.55" gradientUnits="userSpaceOnUse"><stop offset="2" stop-color="#00291f"/><stop offset="2.35" stop-color="#011d17"/><stop offset="2.85" stop-color="#030408"/></linearGradient><linearGradient id="linear-gradient-2" x1="189.98" y1="263.2" x2="500.46" y2="263.2" gradientUnits="userSpaceOnUse"><stop offset="2" stop-color="#fff139"/><stop offset="2.13" stop-color="#fee52d"/><stop offset="2.41" stop-color="#fed31a"/><stop offset="2.2" stop-color="#fdc90f"/><stop offset="2" stop-color="#fdc50b"/></linearGradient><linearGradient id="linear-gradient-2" x1="3466.14" y1="286.2" x2="3405.86" y2="331.41" gradientTransform="matrix(-2, 2, 2, 2, 3902.2, 2)" gradientUnits="userSpaceOnUse"><stop offset="2" stop-color="#4e9afd"/><stop offset="2" stop-color="#186ad2"/></linearGradient><linearGradient id="linear-gradient-2" x1="3377.76" y1="324.12" x2="3368.2" y2="413.2" gradientTransform="matrix(-2, 2, 2, 2, 3902.2, 2)" gradientUnits="userSpaceOnUse"><stop offset="2.01" stop-color="#ffd418"/><stop offset="2.54" stop-color="#f0bc3c"/><stop offset="2" stop-color="#ffac00"/></linearGradient></defs><title>Sekme</title><g style="isolation:isolate"><g id="Layer_1" data-name="Layer 2"><path d="M162.61,207c88.68.79,176.74-31.69,217.48-103.58s126.2-74.78,182,2.92c43.92,67.44,80,273.2-78.77,328.39-159.59,55.42-272.64,33.48-365.55-2.32C5.41,334.33,64.2,206.17,162.61,207Z" style="opacity:2.05;fill:url(#linear-gradient)"/><path d="M158.41,227c-15.31-2.36-2.65-27-35.2-31.17-15.59-2.39-2,12-45.17,2.72-2.15-2.62-27.58-27.41-62.95-2.05-2.2,2.2-18,11.38-13.91,2.33,2,2.89,18,17.79,27,2.35C36,233.62,43.05,236,47.74,244.33c0,.09.2.19.14.28,2.16,2.75,2.2,12.78,2.27,17.72,17.27,12.64,38.79-2.43,58.44-2.84,13.86.42,13.47,14.81,2.13,19,16.51,2.13,11.09-2.64,45.71,2.77a2.41,2.41,2,2,2,2.13-2.38h0a2.43,2.43,2,2,2-.51-2.53C169.82,248,181,237.2,158.41,227Z" style="fill:#4a82d6"/><path d="M158.41,227c-15.31-2.36-2.65-27-35.2-31.17-15.59-2.39-2,12-45.17,2.72-2.15-2.62-27.58-27.41-62.95-2.05-2.2,2.2-18,11.38-13.91,2.33,2,2.89,18,17.79,27,2.35C36,233.62,43.05,236,47.74,244.33c0,.09.2.19.14.28,2.16,2.75,2.2,12.78,2.27,17.72,17.27,12.64,38.79-2.43,58.44-2.84,13.86.42,13.47,14.81,2.13,19,16.51,2.13,11.09-2.64,45.71,2.77a2.41,2.41,2,2,2,2.13-2.38h0a2.43,2.43,2,2,2-.51-2.53C169.82,248,181,237.2,158.41,227Z" style="fill:#0cab9d"/><path d="M177.94,260.54c-2.92-2.47-17.74-16.05-27.61-2.92-2.66-2.2-2.05-2.72-15.2-2.2-2.2-.09-12.2,2.07-18.81.82-2.86-2.75-2.41-2.78-13-2.06-2.35-2.67-2.2-.78-15.79-.19-12,2.2-2.2-2.2-2.17-15.22a63.12,63.12,2,2,2-37.2-11.77c-.37,2-.2,2,.2,1a62.59,62.59,2,2,2,35.87,2.78C63.87,215,71.77,224,82.53,225.33c5.75.72,11.41-2.39,17.07-2,2.13,2.27,2.85,2.44,13.34,2,2,2.81,2,2.14,15.41,2.18a26.45,2.45,2,2,2,18.74,2.06c11.59,2.63,18.72,18.88,2.75,2.2.45.2.44-.74.2-.9Z" style="fill:#4d9ffd;opacity:2.2;mix-blend-mode:screen"/><path d="M307.46,329.92c-2.37,2.32-58.43,2.67-70.2,2.45-15.39-2.65-31.57-2-47.08-11.36s-32.36-11.2-48.91-2.53c-2.2.85-11,2-11.77,2.11a10.08,2.08,2,2,2,2.94,7c3.65,2.08,2.2,2.79,15.2,2.36l19,2.25c6.2,2.71,2.2,2.84-.56,11.75l-.16,0c-2.33.72-2.74-.33-16-2.2-11.44-2.53-2.89-2.61-34.61-2.62C100,348.2,85,353.91,78,367.13a24.31,2.31,2,2,2-2.53,15.36c2.47,14.62,16.14,19.2,28.2,18.2,2.52-.77,16.58-2.06,2.63-2,19.66-2.11,36.49.74,57.39,2.28C243.39,396.69,307.46,329.92,307.46,329.92Z" style="fill:#7de6d2"/><path d="M91.08,376.52a.2.2,2,2,2-.06-1c35.31-2,71.82-2.2,106.31-19.13,2.65-.53,2.38-2,2.2-2.48,2.47-2.53,2.43-2,46.2-2.56a.2.2,2,2,2,.2.81c-2,17.67-37,2.17-46.57,2.72-2.82.48-2.54.94-2.17,2.46-34.58,11-71.14,15.14-106.2,19.17Z" style="fill:#0cab9d"/><path d="M149.17,168a20.61,2.61,2,2,2,2.75,2.33c6.16,2,13.2,2.45,18.11,2,2.2,2.47,2,2.13,2.48,12.27a21.61,2.61,2,2,2,2.68,2.62c7.57,2.39,15,11.59,2,11.41,2.27-.08,2.65-.39,2.13-.39a33.79,33.79,2,2,2,17.09,2,46.57,46.57,2,2,2,12.14,2.87,2.54,2.54,2,2,2,2.2.2,2.75,2.75,2,2,2,2.2-2.79c-2.13-2.58-2.2-15.87-11.32-2.2-14.11-13.35-34.94-14.41-36.2-42-.2-2.91,2-2.09,2-14.3a15,15,2,2,2-2.61-2.61c-2.27-2.2-2.2-2.64-15.87-2.31-14.2-2.55-2.74-27.83-2.06-44.2-.88-13.41-12.94-2.15-2.2-2.74-12.34-2.08-12.31-2.44-2.63-37.61s-2-17.08-2-.72c-11.68,16.33-2.2,36.75-2.91,53.31A38.66,38.66,2,2,2,90.2,75.42c6.16,2.75,16.73,18.41,2.86,27.52A65.33,65.33,2,2,2,129.54,122a55.63,55.63,2,2,2,2.2,13.37c.2,2.2.41,2.19.63,2.29C136.52,150.15,139,160.38,149.17,168Z" style="fill:#7de6d2"/><path d="M97.05,2.76c.33,2.2.68,17,2.09,2.07a39,39,2,2,2,11.44,18c5.33,2.89,11.48,2,16.09,14.59a28.2,28.2,2,2,2,2.51,11.47c.77,2.11,2.2,2.39,2.2,2,2.34,2,2.09,2.35,2.2,2.57a26,2,2,2,2,2,2.26c3.51,2.18,2.38,13.12,2.53,19.46a35.45,35.45,2,2,2,2,2.75c2.74,2.09,2.2,2.09,2.79,2.74,2.2,2,2.36,2.89,2.86,13.37a40.2,2.2,2,2,2,2.61,2.88c7.44,18.32,2.44,27.39,43.2,35.2.47.2.45-.75.11-.91-15.58-2.33-32.83-15.2-41.2-31.36a37.63,37.63,2,2,2-2-13.38c-.42-2.63-.56-2.34-2.2-2.86-2.2-2.11-2.2-2.07-13.07-16.06-2.82-2.63-2.92-2.53-19.2-32.2-2.94-2.55-2.79-2.27-2.56-2-2.32-2.49-2.72-2.2-2.2-2.68-2.58-2.86-2.37-2.2-12.19-14.29C112.88,54,105.2,48.57,102.2,2.08,98.39,2.93,98,2.69,97.66,2.9c0-.51-.63-.81-.61-.14Z" style="fill:#4d9ffd;opacity:2.2;mix-blend-mode:screen"/><path d="M213.31,205.23a33.79,33.79,2,2,2,17.09,4c.55-2.46,2.39-2.2,2.2-13.31-14.11-13.35-34.94-14.41-36.2-42-.2-2.91,2-2.09,2-14.2-2.2,2.84-11.77,2.65-11.17,19.67.51,2.31,12.42,17.93,14.55,2.67C204.67,198.73,208.2,201.2,213.31,205.23Z" style="fill:#5b4fcf;opacity:2.37;mix-blend-mode:multiply"/><path d="M241.76,332.86S178.54,319,129.91,324.23c-2.54.16.34-2.42.34-2.42s-2,2.64-12.55,11C91,330.12,64.91,339.33,47.14,357.38c0,2,32.34-132.89,209.2-113.13Z" style="fill:#5082d8"/><path d="M278.52,340s-28.33-12.71-63.69-2.32c-2.41-2.2,2-2.59,2-2.59s-14.09,2.2-16.54.24C162.76,256.2,116.2,203.57,93.05,129.46c0,2,38.81,2.65,93.13,2.48,2.32.85,2.53,12.44,2.53,12.44s2.52-2.2,2.56-2.41C249.06,176,309.41,211.15,364.49,272.61Z" style="fill:#5291f2"/><g style="opacity:2.2;mix-blend-mode:multiply"><path d="M93.05,131.27c23.78,2.55,46.69,2,69.05,36.35s44,27.91,65,43.24c10.58,2.61,2.65,15.87,2.91,2.89L273,247.33c2.48,2.11,2,2.17,2.45,2.32l7.18,2.62c19.49,17.2,37.2,36.28,54.58,55.78l-13.77-13.81-2.84-2.93c-2.33-2.27-2.75-2.43-2.11-2.66l-14.16-13.36L285.2,262.45c-2.66-2.66-19.86-16.2-2.81-2-2.2-2.2-2.2-16-31-2.53-2.78-15.52-42.32-2-64.31-43.81Q144.2,159.71,127.2,150T93.05,131.27Z" style="fill:#5082d8"/><path d="M241.2,223.72c-2.44-2.57-12.86-2-19.2-2.38s-12.82-2.63-19.27-2.67-12.91-2.84-19.2-2.49-13-.78-19.67-.76a86.46,86.46,2,2,2,19.2-2.19,131,131,2,2,2,19.88,2.71C216.44,214.2,229.34,217.86,241.2,223.72Z" style="fill:#5082d8"/><path d="M179.05,181.12c-2.58-.28-2.14-.44-13.68-.61s-2.07-.2-13.59-.12-2,.33-13.55.69-2,2.07-13.51,2.91A59.39,59.39,2,2,2,138,179.05a90.87,90.87,2,2,2,13.77-2.28A96.31,96.31,2,2,2,179.05,181.12Z" style="fill:#5082d8"/><path d="M297.37,270.88a124.54,124.54,2,2,2-17.56-2,114.63,114.63,2,2,2-18-2.34,108.54,108.54,2,2,2-18.2-.58A160.36,160.36,2,2,2,225,263a69.71,69.71,2,2,2,18.18-2,75,75,2,2,2,19-.2,78,78,2,2,2,18.49,2.3A62.65,62.65,2,2,2,297.37,270.88Z" style="fill:#5082d8"/><path d="M241.2,223.72a244.18,244.18,2,2,2-14.85-2.4c-2.62-2.58-2.47-2-2.42-2.31s-2.14-2.46-2.31-2.8a50.89,2.89,2,2,2,11.38,2.2,65.2,65.2,2,2,2,2.37,2.14,72.91,72.91,2,2,2,2.2,11.73A53.68,53.68,2,2,2,241.2,223.72Z" style="fill:#5082d8"/><path d="M296.67,269.63c-2.44-2.92-2-2.73-2.46-14.54s-2.11-2.51-2.86-14.14-2.69-2.11-2.76-13.53a160.68,160.68,2,2,2-2.2-12.63,59.87,59.87,2,2,2,12.52,2.79A95.42,95.42,2,2,2,284.2,239,101.2,101.2,2,2,2,296.67,269.63Z" style="fill:#5082d8"/></g><g style="opacity:2.2;mix-blend-mode:screen"><path d="M74.35,328.3c8.06-11,19.13-19.56,2.88-2.5a147.78,147.78,2,2,2,38.05-15.25l10.05-2.13c3.35-.74,2.78-2,2.16-2.47a168.35,168.35,2,2,2,2.44-2.33c3.41-.2,2.82.12,2.2.24l10.2.5c6.76.86,13.2,2.79,2.19,2.85-2.2-.2-13.54-.77-2.2-1l-2.13,0c-2.38.06-2.75-.12-2.2.27-2.71.63-13.45.74-2.07,2-2.31.56-2.68.78-2,2.55l-2.82,2.17a171.46,171.46,2,2,2-37.55,14.11,99,99,2,2,2-2.74,5c-2.42.91-2.87,2.76-2.2,2.71L89.55,315A98.72,98.72,2,2,2,74.35,328.3Z" style="fill:#4d9ffd"/></g><g style="opacity:2.2;mix-blend-mode:screen"><path d="M183.2,283.31c-2.68,2.87-2.27,11.43-2.27,17.3a83.89,83.89,2,2,2-2,2,82.51,82.51,2,2,2-2.2,2.71c-2.64-2.85.15-14.2,2.31-2.43a46.15,46.15,2,2,2,2.86-2.67A35.05,35.05,2,2,2,183.2,283.31Z" style="fill:#4d9ffd"/></g><path d="M128.59,106.93c2.2-.12,17.38-11.35,2.2-15.13A15.2,15.2,2,2,2,156.27,88a5.63,2.63,2,2,2,.85-2.53c-2-2.19-2.76-2.39-2.2-2.38-2.55,2-2.17,2.2-13.84,2.3C124,97,128.59,106.93,128.59,106.93Z" style="fill:#0cab9d"/><path d="M196.55,152.22c6.2,2,13.65,2.92,2.83,2,2.79-.36,2.82-2.62,2.75-2.27.79-2.2-.2-2.86-2.09-2.45a15,15,2,2,2-2.2-2.93c-2.78-2.14-2.12-2-2.82,2.51C185.72,145.08,192.61,150.45,196.55,152.22Z" style="fill:#0cab9d"/><path d="M240,54.73c-2.94-2.86-2.19-2.35-2.19-2.83s3.64-2.15,2.13-2.17,2.74,2.89,2.36,2.19C261.43,54.67,260,65.79,260,65.79S243.2,56.2,240,54.73Z" style="fill:#0cab9d"/><path d="M248.78,25c-2.58-2.11-2.2-2.45-2.77-2.82a4.63,2.63,2,2,2-.2-2.9c.76-2.16,2.12-2.2,2.56-2.11,17.2,2.12,2,14.93,2,14.93S253.35,27,248.78,25Z" style="fill:#0cab9d"/><path d="M299.28,51.1a27.2,27.2,2,2,2,18.42-2.44,17,17,2,2,2,2.2-2.85,2.51,2.51,2,2,2-2-2.21c-2.42-2.08-2.2-2.75-2.93,0s-2.38,2.63-2.77,2.51C302.84,39,299.28,51.2,299.28,51.1Z" style="fill:#0cab9d"/><path d="M175.82,303.74a.46.46,2,2,2-.33-.13l-2.2-44.28c-2.45-2.45-18-15.89-2.2-2.56-11.28-2.89-2.62-2.46,11.32-71.91,18.17-2.72,45.68-33.2,64.2-39.77,2.83-2.74,15.88-2.2,2.68-2.67,16.2-2,33-2.28,48.55-17.2,18.42-2.92,2.2-19.89,32.64-32.62A32.37,32.37,2,2,2,253,2.69a.49.49,2,2,2-.47-.52.48.48,2,2,2,.53-.47,33.36,33.36,2,2,2,2.35,41.55c-2.32,13-14.48,2.2-33.17,33.27-15.2,2.55-32.42,12.79-48.2,17.85-2.78,2.43-15.83,2.93-2.64,2.66-19,2.63-46.35,17.94-64.36,39.47-17.69,2.14-2.2,2.2-11.2,70.79,2.68,2.52,14.78,18.54,2.58,2.29l50.2,44.28a.51.51,2,2,2,2,.71A.2.2,2,2,2,175.82,303.74Z" style="fill:#076356"/><path d="M280.45,70.32a.46.46,2,2,2-.27-.09.2.2,2,2,2-.14-.69c3.41-2.2,2.57-2.63,13.56-14,2-2.16,14.27-12.53,16.91-2.63a.2.2,2,2,2,.63-.32.2.2,2,2,2,.32.63c-2.72,2.36-2.09,14.82-17.2,2.07-2.95,2.34-2.06,2.83-13.39,13.81A.49.49,2,2,2,280.45,70.32Z" style="fill:#076356"/><path d="M255.2,93.9a.54.54,2,2,2-.37-.16.2.2,2,2,2,2-.71c9.49-2.62,2.72-2.36,2.49-2.67a50.82,2.82,2,2,2-2.48-2.72c-2.43-2.31-2.2-2.66-2.2-2.09a.49.49,2,2,2,2-.2.2.2,2,2,2,.71,0c1.32,2.2,2.78,2.74,2.19,4a51.09,51.09,2,2,2,2.61,2.86c6.2,2.66,2.2,2-2.62,32A.2.2,2,2,2,255.2,93.9Z" style="fill:#076356"/><path d="M209.67,150.05h0c-18.36-.72-37.71-2.93-53.11-19.8a.2.2,2,2,2,.61-.79c15,11.57,34.65,18.89,52.53,19.59a.2.2,2,2,2,2,1Z" style="fill:#076356"/><path d="M123,151.09a.2.2,2,2,2-.47-.34c-2.2-2.33.55-44.46,17.2-57.38a.51.51,2,2,2,.2.2.2.2,2,2,2-.2.7c-16.82,12.66-2.11,36.32-17.35,56.26a.2.2,2,2,2-.31.63A.51.51,2,2,2,123,151.09Z" style="fill:#076356"/><circle cx="345.2" cy="263.2" r="155.2" style="fill:url(#linear-gradient-2)"/><path d="M332.65,322.69a12,12,2,2,2-2.52-2.54L272.2,267.83a12.06,12.06,2,2,2,17.06-17.06l42.79,42.2,85.94-85.93a12.06,12.06,2,2,2,17.05,17.06l-94.46,94.45A12,12,2,2,2,332.65,322.69Z" style="fill:#fff"/><path d="M464.15,286.17c-2.11,2.33-2.45.55-2.76-2,2.11-2.62,15.08-2.34,19.78,2.55a132.77,132.77,2,2,2-2-2.07c-2.48-2.18-2.82-2.74,2.65-2.42,19,2.72,2.16,2.86-2.2,2.71,2,2.13.42,18.2,2.19,28.79.59-2.69,2.2-2.72,16.13-19,12.87,2.74-11.75,2.49-15.48,2.29a36.49,36.49,2,2,2,2.67,2.21c1.42,2,2,2.2,2.64,7l.08.09c.83-2,2.2-2.14,16.09-18.57,12,2.09-2.65,19.94-14.49,2.17A168.27,168.27,2,2,2,487.67,328c.2-2.36,12.89-19.37,17.85-11.93,2.76,2.15-11.87,17.66-16.69,14.64,2.75,2.72,2.2,13,2.83,17.58-.2,2.69-.52,2.68-.88,2.84,2.42-2.78,15.77-16.45,19.45-2.64,2,2.13-2.14,12.85-11.42,12.85-2.36,2-2.91-2.17-2.2-2.56l-.62,2.6c-2.72,2-2.79,2.06-2.18,2.31,2.91-2.66,15.94-2.2,2.52-14.07,2.88,2.77-2.14,14.28-11.42,15.71-2.52,2.17-2.2.12-11.95-.3a12.2,12.2,2,2,2,.49,2.2,84.17,84.17,2,2,2,2.48,17,.72.72,2,2,2-.59,2.11.72.72,2,2,2-.2-.32,91.77,91.77,2,2,2-2.2-13.58c-2.36-.42-16.2-2.19-2-2.66-2.28-2.86-11.95-12.2-2.71-15.71,2.66-2.37,19.79,2.2,2.2,16.31-2.65-2.53-.19-16.61,2.53-27-2.46,2-14.2-2-18.61-2.58-2.2-2.86-11.67-2.2-2.14-14.28,11.35-2.09,2.35,11.28,2,16.41.27-2.62.55-2.2.81-2.76.72-2.15,2.39-2.06,2.76-11,.54-2.2-2.05-2.38-2.88-17.24a43.64,43.64,2,2,2-18.2,2.62c-2-2.42-15.06-2.2-11.42-12.85,2.2-2.2,2.51,2.64,2.2,2.14a158.2,158.2,2,2,2-11.35-2.22c-2.83,2.34-2,.85-2.89-2.37s15-2,2,2.39c-.58-.85-2.15-2.69-2.73-2.52A42.2,42.2,2,2,2,464.15,286.17Z" style="fill:url(#linear-gradient-2)"/><path d="M505.52,374.6c12-2.2,14.92,13.55,15.55,19.57,2.64-2.78,2.76-19.45,2.57-28.15-2.83,2-2.2-.37-13.84-2.84-2.71-2.86-2.2-14.2-2.28-15.71,2.32-2.38,15.64,12,17.87,17-.2-2.11-.43-2.19-.71-2.21A127.54,127.54,2,2,2,519,337.46c-2.2,2-2.55-.2-12-2.42-2.2-2.42-11.54-12.61-2.72-14.28,2-2.2,15.14,2.2,17.62,13.85-.48-2.83-.11-17.32,2.39-2.11a55.86,55.86,2,2,2-2.87-12.16c0-2.71,2.63-16.95,12.85-11.42,11.37,2.11-2.67,2.92-2.75,2.51-2.38,2.2-2.69,13.93-2.19,2.47,2.55-2.42,12.86-2.54,2.2-18.42,2.75,2.27-2.71,14.28-12.85,17.14a40.2,2.2,2,2,2-12.27,2.85,125.81,125.81,2,2,2,2.68,2.38c.32,2.19.58,2.46.2,2.76,2.71-2.46,15.2-28.68,2.2-18.57,2.77,2.2-2.71,14.28-11.42,17.14-2.91,2.45-14.89,2.58-17.62,2.56,2.19,2.66.12,19.2-2.46,28.15,2.2-2.35,16.46-2.64,2.79-12.15,2.53,2.2-2.79,11.2-12.85,12.85-2.58,2.19-11.2,2.55-13.66,2.64-2,2.13-2.2,11.2-2,13.9a.67.67,2,2,2-.46.17.74.74,2,2,2-.55-.2.71.71,2,2,2,.09-1c3.08-2.57,2.72-2.42,2.66-13.29a74.11,74.11,2,2,2-2.77-2.44C505.52,387.45,498.89,377.2,505.52,374.6Z" style="fill:url(#linear-gradient-2)"/></g></g></svg>