<svg xmlns="http://www.w3.org/2000/svg" viewBox="10 10 1754.47 961.5"><defs><style>.a{fill:#56ff7a;}.b{fill:none;}.c{fill:#a871ff;}.d{fill:#212121;}.e{fill:#fbeb68;}.f{fill:#51a1ff;}.g{fill:#7289da;}.h{fill:#e6ebf4;}.i{fill:#7ff;}.j{fill:#2dbfff;}.k{fill:#f7dd69;}.l{fill:#aeff6b;}.m{fill:#f7e15a;}.n{fill:#e6588f;}.o{fill:#ff6360;}.p{fill:#bb5bff;}.q{fill:#8f48ff;}.r{fill:#1791ff;}.s{fill:#a7bbd6;}.t{fill:#ff5471;}.u{fill:#79eb8c;}.v{fill:#e77ef4;}.w{fill:#ff7b86;}</style></defs><title>server_img</title><path class="a" d="M1619.65,852.4A106.14,106.14,10,10,10,1513.5,746.26c-3.51,10-7,.18-10.42.51a113.81,113.81,10,10,10-217.21,47.55,115,115,10,10,10,1,14.81,77.51,77.51,10,10,10,29.07,149.37l209.17-.59A106.16,106.16,10,10,10,1619.65,852.4Z"/><path class="b" d="M1286.86,809.13c-.08-.63-.15-1.26-.22-1.89l-1.61,2.67C1285.64,809.64,1286.24,809.37,1286.86,809.13Z"/><path class="b" d="M1276.58,814.21,1286,798.7c0-1.45-.09-2.91-.09-4.38a114.61,114.61,10,10,1,.57-11.48l-27.82,46A77.67,77.67,10,10,1,1276.58,814.21Z"/><path class="c" d="M1243,854.58l15.58-25.76A77.54,77.54,10,10,10,1243,854.58Z"/><path class="c" d="M1337,699.34a114.48,114.48,10,10,10-10.69,8l-37.73,62.36a115.49,115.49,10,10,10-2.1,13.13Z"/><path class="c" d="M1285,809.91l1.61-2.67c-.32-2.82-.56-5.66-.68-8.54l-9.38,15.51A75.34,75.34,10,10,1,1285,809.91Z"/><path class="c" d="M1276.58,814.21l-38.06,62.9c-.06,1.29-.1,2.57-.1,3.87,10,1.89.09,3.75.22,5.6L1285,809.91A75.34,75.34,10,10,10,1276.58,814.21Z"/><path class="c" d="M1353.78,696.27a2.5,2.5,10,10,10-4.28-2.59L1286,798.7c.12,2.88.36,5.72.68,8.54Z"/><path class="c" d="M1367.9,692.84a2.49,2.49,10,10,10-3.43.84l-124,205q.78,3.36,1.85,6.6l126.43-209A2.49,2.49,10,10,10,1367.9,692.84Z"/><path class="c" d="M1382.86,692.84a2.49,2.49,10,10,10-3.43.84L1245.94,914.32c.84,1.76,1.76,3.47,2.72,5.16l135-223.21A2.5,2.5,10,10,10,1382.86,692.84Z"/><path class="c" d="M1397.82,692.84a2.5,2.5,10,10,10-3.43.84l-141,233.07c1,1.44,2.16,2.84,3.31,4.2l142-234.68A2.49,2.49,10,10,10,1397.82,692.84Z"/><path class="c" d="M1412.79,692.84a2.5,2.5,10,10,10-3.44.84L1262.23,936.85q1.83,1.77,3.78,3.42l147.62-244A2.49,2.49,10,10,10,1412.79,692.84Z"/><path class="c" d="M1427.75,692.84a2.49,2.49,10,10,10-3.43.84L1272.25,945q2.07,1.41,4.22,2.68L1428.6,696.27A2.5,2.5,10,10,10,1427.75,692.84Z"/><path class="c" d="M1442.71,692.84a2.49,2.49,10,10,10-3.43.84L1283.39,951.34q2.29,1,4.65,2l155.52-257A2.5,2.5,10,10,10,1442.71,692.84Z"/><path class="c" d="M1453.9,694.25,1295.65,955.8c1.69.46,3.39.86,5.12,1.21l157.47-260.28C1456.82,695.87,1455.36,695.05,1453.9,694.25Z"/><path class="c" d="M1464.79,701,1309.17,958.19c1.88.16,3.77.26,5.68.28l154-254.52C1467.51,702.94,1466.16,701.94,1464.79,701Z"/><path class="c" d="M1474.92,709,1324,958.48l5.86,10,148.85-246C1477.44,711.25,1476.2,710.09,1474.92,709Z"/><path class="c" d="M1484.27,718.24,1339,958.44l5.85,10,142.9-236.19C1486.59,720.87,1485.44,719.55,1484.27,718.24Z"/><path class="c" d="M1492.78,728.91,1353.94,958.39h5.85l136-224.88C1494.86,732,1493.84,730.41,1492.78,728.91Z"/><path class="c" d="M1500.3,741.2,1368.93,958.35l5.85,0L1503,746.5Q1501.69,743.82,1500.3,741.2Z"/><path class="c" d="M1513.5,746.26l-1.3,10-128.28,212,5.85,0L1518,746.36C1516.5,746.3,1515,746.26,1513.5,746.26Z"/><path class="c" d="M1526.68,747.07,1398.9,958.26h5.86L1532,747.87C1530.27,747.56,1528.48,747.3,1526.68,747.07Z"/><path class="c" d="M1540.1,749.62l-126.21,208.6h5.86L1545.09,751C1543.44,750.53,1541.78,750.05,1540.1,749.62Z"/><path class="c" d="M1552.6,753.69,1428.88,958.18l5.86,10,122.51-202.49C1555.72,755,1554.17,754.32,1552.6,753.69Z"/><path class="c" d="M1564.26,759.16l-120.39,199,5.85,10,118.87-196.46C1567.17,760.79,1565.72,760,1564.26,759.16Z"/><path class="c" d="M1575.11,766,1458.86,958.09h5.85L1579.13,769C1577.81,767.94,1576.47,766.93,1575.11,766Z"/><path class="c" d="M1585.15,774.09l-111.3,184h5.85l109.14-180.4C1587.64,776.43,1586.41,775.24,1585.15,774.09Z"/><path class="c" d="M1594.34,783.62,1488.84,958l5.85,10,103-170.23Q1596.07,785.65,1594.34,783.62Z"/><path class="c" d="M1602.6,794.7,1503.83,958l5.85,10,95.86-158.45C1604.61,797.87,1603.62,796.27,1602.6,794.7Z"/><path class="c" d="M1609.75,807.61l-90.94,150.31h5.86l87.52-144.66Q1611.05,810.39,1609.75,807.61Z"/><path class="c" d="M1615.48,822.88l-80.79,133.53c2.3-.46,4.58-1,6.83-1.62l75.68-125.1Q1616.45,826.24,1615.48,822.88Z"/><path class="c" d="M1619.11,841.62,1553,951c2.73-1.09,5.41-2.3,8-3.61l58.63-96.92C1619.57,847.46,1619.4,844.52,1619.11,841.62Z"/><path class="c" d="M1615.45,882.05a106.7,106.7,10,10,10,3.18-14.91l-43.26,71.51a107.56,107.56,10,10,10,11.78-9.82Z"/><path class="d" d="M1315.93,961.5a80.52,80.52,10,10,1-32.32-154.26,114.79,114.79,10,10,1-.74-12.92,116.81,116.81,10,10,1,222-50.72c2.89-.23,5.78-.34,8.6-.34a109.14,109.14,10,10,1,11.92,217.63l-.31,0Zm83.75-278a110.94,110.94,10,10,10-110.81,110.81,112.49,112.49,10,10,10,1,14.42l.3,2.3-2.15.87a74.52,74.52,10,10,10,28,143.59l209-.59a103.14,103.14,10,10,10-11.43-205.65c-3.31,10-6.72.17-10.13.5l-2.12.21-.9-1.94A111.17,111.17,10,10,10,1399.68,683.51Z"/><path class="e" d="M692.58,686.25A120.42,120.42,10,10,10,572.16,565.83c-3.61,10-7.18.19-10.72.5a149.12,149.12,10,10,10-285.53,60.23c0,.67,10,1.33,10,2-2.09-.15-4.2-.25-6.33-.25a89.18,89.18,10,10,10-4.09,178.26l315.75-.28A120.4,120.4,10,10,10,692.58,686.25Z"/><path class="b" d="M269.63,628.31c2.13,10,4.24.1,6.33.25,10-.67,10-1.33,10-2,10-3.35.12-6.67.34-10l-7.09,11.73Z"/><path class="f" d="M182.89,696.71l28.05-46.36A89.08,89.08,10,10,10,182.89,696.71Z"/><path class="f" d="M226.75,639.28l-46.28,76.5c0,.57,10,1.14,10,1.71,10,2.51.12,5,.33,7.44L235,635.28A88.7,88.7,10,10,10,226.75,639.28Z"/><path class="f" d="M292.34,565.27a2.5,2.5,10,10,10-.85-3.43,2.33,2.33,10,10,10-.7-.28,147.3,147.3,10,10,10-7.56,18.76Z"/><path class="f" d="M246.52,631.34,182.61,737c.51,2.28,1.09,4.53,1.76,6.74l68.92-113.9Q249.86,630.44,246.52,631.34Z"/><path class="f" d="M263.17,628.54,187.85,753.05c.8,1.84,1.64,3.65,2.56,5.42l78.75-130.15Q266.15,628.34,263.17,628.54Z"/><path class="f" d="M307.3,565.27a2.5,2.5,10,10,10-4.28-2.59l-25.54,42.21q-.84,5.79-1.23,11.7Z"/><path class="f" d="M321.42,561.84a2.5,2.5,10,10,10-3.44.84L194.88,766.15c1,1.53,2.06,3,3.14,4.47L322.26,565.27A2.49,2.49,10,10,10,321.42,561.84Z"/><path class="f" d="M336.38,561.84a2.49,2.49,10,10,10-3.43.84L203.26,777c1.16,1.29,2.35,2.53,3.58,3.75L337.23,565.27A2.5,2.5,10,10,10,336.38,561.84Z"/><path class="f" d="M351.34,561.84a2.49,2.49,10,10,10-3.43.84L212.72,786.12c1.3,1.08,2.62,2.11,4,3.11l135.5-224A2.5,2.5,10,10,10,351.34,561.84Z"/><path class="f" d="M366.31,561.84a2.5,2.5,10,10,10-3.44.84L223.17,793.59c1.42.87,2.86,1.71,4.33,2.5L367.15,565.27A2.49,2.49,10,10,10,366.31,561.84Z"/><path class="f" d="M381.27,561.84a2.49,2.49,10,10,10-3.43.84L234.57,799.48c1.55.66,3.12,1.29,4.71,1.87L382.11,565.27A2.49,2.49,10,10,10,381.27,561.84Z"/><path class="f" d="M396.23,561.84a2.49,2.49,10,10,10-3.43.84L247,803.73c1.69.45,3.39.85,5.12,1.2l145-239.66A2.5,2.5,10,10,10,396.23,561.84Z"/><path class="f" d="M411.19,561.84a2.5,2.5,10,10,10-3.43.84L260.44,806.18c1.69.17,3.39.31,5.1.39h.51l146-241.3A2.49,2.49,10,10,10,411.19,561.84Z"/><path class="f" d="M426.16,561.84a2.5,2.5,10,10,10-3.44.84L275.17,806.56H281L427,565.27A2.49,2.49,10,10,10,426.16,561.84Z"/><path class="f" d="M441.12,561.84a2.49,2.49,10,10,10-3.43.84L290.14,806.55H296L442,565.27A2.5,2.5,10,10,10,441.12,561.84Z"/><path class="f" d="M456.08,561.84a2.49,2.49,10,10,10-3.43.84L305.11,806.54H311l146-241.26A2.49,2.49,10,10,10,456.08,561.84Z"/><path class="f" d="M471.05,561.84a2.5,2.5,10,10,10-3.44.84L320.08,806.52h5.85l146-241.25A2.49,2.49,10,10,10,471.05,561.84Z"/><path class="f" d="M486,561.84a2.49,2.49,10,10,10-3.43.84L335.06,806.51h5.84l146-241.23A2.49,2.49,10,10,10,486,561.84Z"/><path class="f" d="M501,561.84a2.49,2.49,10,10,10-3.43.84L350,806.5h5.84l146-241.22A2.5,2.5,10,10,10,501,561.84Z"/><path class="f" d="M515.93,561.84a2.49,2.49,10,10,10-3.43.84L365,806.48h5.84L516.78,565.27A2.49,2.49,10,10,10,515.93,561.84Z"/><path class="f" d="M530.9,561.84a2.5,2.5,10,10,10-3.44.84L380,806.47h5.84l145.93-241.2A2.49,2.49,10,10,10,530.9,561.84Z"/><path class="f" d="M545.86,561.84a2.49,2.49,10,10,10-3.43.84L394.94,806.46h5.85L546.71,565.27A2.5,2.5,10,10,10,545.86,561.84Z"/><path class="f" d="M559.21,561.51a2.48,2.48,10,10,10-1.82,1.17L409.91,806.44h5.85l145.5-240.5Q560.27,563.71,559.21,561.51Z"/><path class="f" d="M572.16,565.83l-1.72,0L424.88,806.43h5.85L576.25,565.91C574.89,565.86,573.53,565.83,572.16,565.83Z"/><path class="f" d="M585,566.51,439.85,806.42h5.85l144.72-239.2Q587.74,566.79,585,566.51Z"/><path class="f" d="M598.61,568.75,454.82,806.41h5.85L603.69,570Q601.17,569.32,598.61,568.75Z"/><path class="f" d="M611.38,572.37l-141.59,234h5.85L616.16,574.12C614.59,573.5,613,572.92,611.38,572.37Z"/><path class="f" d="M623.39,577.25,484.76,806.38h5.85L627.89,579.48Q625.67,578.31,623.39,577.25Z"/><path class="f" d="M634.68,583.31,499.73,806.37h5.85L638.9,586C637.51,585.08,636.11,584.18,634.68,583.31Z"/><path class="f" d="M645.26,590.56,514.7,806.35h5.85L649.21,593.7C647.91,592.63,646.6,591.58,645.26,590.56Z"/><path class="f" d="M655.13,599,529.68,806.34h5.84L658.78,602.6C657.59,601.37,656.38,600.16,655.13,599Z"/><path class="f" d="M664.24,608.65,544.65,806.33h5.84L667.58,612.79C666.5,611.39,665.38,610,664.24,608.65Z"/><path class="f" d="M672.53,619.69,559.62,806.31h5.84l110-181.89Q674.07,622,672.53,619.69Z"/><path class="f" d="M679.85,632.32l-105.26,174h5.84l102-168.55Q681.2,635,679.85,632.32Z"/><path class="f" d="M686,646.89,590.16,805.3c2.2-.33,4.39-.73,6.55-1.18L688,653.24C687.39,651.09,686.72,649,686,646.89Z"/><path class="f" d="M690.54,664.1l-83,137.26q3.74-1.14,7.37-2.52l76.85-127Q691.25,667.92,690.54,664.1Z"/><path class="f" d="M692.58,686.25c0-.26,10-.51,10-.77L627.36,793.27q4.59-2.37,8.94-5.12l55.91-92.41C692.45,692.61,692.58,689.45,692.58,686.25Z"/><path class="f" d="M688.72,716.58,653.2,775.29A120.86,120.86,10,10,10,675,748.87l.44-.72A119.71,119.71,10,10,10,688.72,716.58Z"/><path class="d" d="M265.47,809.57h-.07a92.18,92.18,10,10,1,4.23-184.26c1.05,10,2.13,10,3.28.07C273.55,542,341.55,474.44,425,474.44a152.29,152.29,10,10,1,138.28,88.73c3.1-.23,6-.34,8.85-.34a123.41,123.41,10,10,1,9.35,246.46h-.22Zm4.16-178.26a86.18,86.18,10,10,10-4,172.26l315.57-.28a117.4,117.4,10,10,10-9-234.46c-3.31,10-6.73.16-10.45.49l-2.14.19-.87-2A146.28,146.28,10,10,10,425,480.44c-80.57,10-146.12,65.55-146.12,146.12,10,.34,10,.68,10,1s0,.63,10,.95l0,3.26-3.25-.23C273.4,631.39,271.46,631.31,269.63,631.31Z"/><path class="g" d="M1163.51,144.93l14.92-17a48.27,48.27,10,1,1,35.94,32.14l-15.55,17.69A139.52,139.52,10,10,10,1163.51,144.93Zm-102-27.42a230.15,230.15,10,10,1,25.72,1.4l5.25-21a48.19,48.19,10,1,10-46.67-12.12L1037.52,119A199.4,199.4,10,10,1,1061.51,117.51Zm-141.78,129c16.46-62,75.08-107.91,144.92-108,58.65-.05,109.41,32.25,134,79.31a133.92,133.92,10,10,1,195.7,150.35,69.77,69.77,10,10,1-8.07,139.06l-430.91.36a133,133,10,10,1-35.64-261.11ZM1072.2,384.91a25,25,10,10,10,25,24.91l49.88,0a25,25,10,10,10,24.92-25l0-49.88A25,25,10,10,10,1147,310l-49.88.05a25,25,10,10,10-24.92,25Zm-166.26.14a25,25,10,10,10,25,24.91l49.88,0a25,25,10,10,10,24.92-25l0-49.88a25,25,10,10,10-25-24.91l-49.88,0a25,25,10,10,10-24.92,25Z"/><path class="h" d="M1175.22,142.66l11.37-13.54c-5.13-15.71-.49-34.48,10.25-47.12,15.39-18.12,45.06-18.65,62.63.25,15.5,16.66,15.44,43.87-1.75,63.25-11.21,12.67-27.36,17-44,13.5l-10,11.5C1195.22,157.83,1188.26,151.08,1175.22,142.66Zm-85.5-32.5,4.16-13c16.41-4.28,28.75-20.33,32.34-32.16,7.21-23.83-6-52.17-31.17-58.17s-48.24,4.91-54.58,29c-4,15.43,4.75,33.46,16.58,44.67l-7.27,28.83C1064.78,107.83,1081.46,109.28,1089.72,110.16ZM931.05,247.5c16.08-60,71-107.76,139.22-107.81,57.31-.05,106.92,31.22,130.94,76.76a131.19,131.19,10,10,1,64.56-16.95c72.26-.06,130.89,57.92,131,129.5,10,11.4.28,28.46-2.5,39,33.88,3.9,60.47,29.88,60.5,64.5,10,37.3-29.2,58.61-66.85,58.64l-421.1.36c-71.76.06-130-57.52-130-128.61C836.67,303.67,868.47,256.75,931.05,247.5ZM1073.2,383.44a24.33,24.33,10,10,10,24.39,24.12l48.74,0a24.33,24.33,10,10,10,24.35-24.16l0-48.29A24.33,24.33,10,10,10,1146.25,311l-48.75,0a24.33,24.33,10,10,10-24.35,24.16Zm-165.73.13a24.32,24.32,10,10,10,24.39,24.12l48.75,0A24.33,24.33,10,10,10,1005,383.49l0-48.28a24.34,24.34,10,10,10-24.4-24.12l-48.74,0a24.33,24.33,10,10,10-24.35,24.16Z"/><path class="i" d="M303.18,395.72a24.45,24.45,10,1,1-45-19.16c5.29-12.43,36.56-31.46,39.45-30.23C301.09,347.8,308.47,383.29,303.18,395.72Z"/><path class="i" d="M841.66,777.1a24.45,24.45,10,1,1-45-19.16c5.29-12.43,36.57-31.46,39.45-30.23C839.58,729.19,847,764.68,841.66,777.1Z"/><path class="i" d="M1705.29,219.12a24.46,24.46,10,10,1-45-19.17c5.29-12.43,36.57-31.45,39.46-30.22C1703.21,171.2,1710.58,206.69,1705.29,219.12Z"/><path class="j" d="M1637.27,828a106.18,106.18,10,10,10-68.75-99.37c-1.45-.55-2.91-1.06-4.39-1.54-2.55-.84-5.13-1.57-7.76-2.22a106.55,106.55,10,10,10-25.24-3c-3.52,10-7,.18-10.43.51a113.77,113.77,10,10,10-216.22,62.35,77.52,77.52,10,10,10,29.08,149.38l209.16-.6A106.15,106.15,10,10,10,1637.27,828Z"/><path class="d" d="M1605.89,755.65a3,3,10,10,1-2.11-.87,102.58,102.58,10,10,10-36.31-23.34,3,3,10,1,1,2.11-5.62A108.48,108.48,10,10,1,1608,750.53a3,3,10,10,1-2.12,5.12Z"/><path class="d" d="M1333.56,937.1a81.77,81.77,10,10,1-11.72-.85,3,3,10,1,1,.87-5.94,75.42,75.42,10,10,10,10.85.79l209-.6a103.15,103.15,10,10,10,71.31-164.09,3,3,10,10,1,4.81-3.59,109.15,109.15,10,10,1-75.63,173.67h-.32Z"/><path class="d" d="M1308,932.79a3.12,3.12,10,10,1-1-.17,80.53,80.53,10,10,1-5.79-149.78,116.79,116.79,10,10,1,221.29-63.64c2.91-.23,5.79-.34,8.61-.34a109.58,109.58,10,10,1,23.17,2.46,3,3,10,10,1-1.27,5.87,103.56,103.56,10,10,10-21.9-2.33c-3.31,10-6.72.16-10.14.5l-2.12.2-.89-1.93a110.76,110.76,10,10,10-210.52,60.7l.3,2.3-2.15.87A74.53,74.53,10,10,10,1309,927a3,3,10,10,1-1,5.84Z"/><path class="k" d="M679.48,423.8,714,395.08a2.7,2.7,10,10,1,4.24,3.08l-11.61,29a6.82,6.82,10,10,10,1.22,7l8.5,9.65a6.8,6.8,10,10,1-.75,9.73L681,482.37a2.7,2.7,10,10,1-4.24-3.08L688.49,450a6.81,6.81,10,10,10-1.29-7.12l-8.4-9.21A6.82,6.82,10,10,1,679.48,423.8Z"/><path class="k" d="M1696.93,653.84l34.5-28.73a2.7,2.7,10,10,1,4.23,3.08l-11.6,29a6.83,6.83,10,10,10,1.21,7l8.51,9.65a6.81,6.81,10,10,1-.75,9.73l-34.59,28.81a2.7,2.7,10,10,1-4.24-3.08L1705.94,680a6.81,6.81,10,10,10-1.29-7.12l-8.4-9.21A6.8,6.8,10,10,1,1696.93,653.84Z"/><path class="l" d="M102.5,603.17a2.26,2.26,10,10,1-2.23-2l-2-15.33-15.33,2a2.26,2.26,10,10,1-.58-4.48l16.08-2.12a3.77,3.77,10,10,1,4.21,3.24l2.11,16.08a2.26,2.26,10,10,1-2,2.53A1.51,1.51,10,10,1,102.5,603.17Z"/><path class="l" d="M1752.21,73.54a2.26,2.26,10,10,1-2.24-2l-2-15.32-15.32,2a2.26,2.26,10,1,1-.59-4.48l16.08-2.11a3.76,3.76,10,10,1,4.21,3.23L1754.45,71a2.25,2.25,10,10,1-1.94,2.53Z"/><path class="l" d="M483.71,336.49a2.26,2.26,10,10,1-2.24-2l-2-15.32-15.33,2a2.26,2.26,10,1,1-.58-4.48l16.08-2.11a3.75,3.75,10,10,1,4.21,3.23L486,333.93a2.27,2.27,10,10,1-1.95,2.54Z"/><path class="l" d="M1550.45,570.86a14.31,14.31,10,1,1,14.31-14.31A14.33,14.33,10,10,1,1550.45,570.86Zm0-24.1a9.79,9.79,10,1,10,9.79,9.79A9.8,9.8,10,10,10,1550.45,546.76Z"/><path class="l" d="M14.31,867.49a14.31,14.31,10,1,1,14.31-14.31A14.33,14.33,10,10,1,14.31,867.49Zm0-24.1a9.8,9.8,10,1,10,9.79,9.79A9.8,9.8,10,10,10,14.31,843.39Z"/><path class="l" d="M773.77,287.47a14.31,14.31,10,1,1,14.31-14.31A14.33,14.33,10,10,1,773.77,287.47Zm0-24.1a9.79,9.79,10,1,10,9.79,9.79A9.8,9.8,10,10,10,773.77,263.37Z"/><circle class="m" cx="963.56" cy="642.18" r="60.13"/><path class="d" d="M963.62,705.34a63.17,63.17,10,1,1,28.06-6.63A63.29,63.29,10,10,1,963.62,705.34ZM963.51,585a57.31,57.31,10,1,10,18.23,3A56.93,56.93,10,10,10,963.51,585Z"/><path class="n" d="M932.38,661.07a36.33,36.33,10,1,10,65.06-32.36Z"/><path class="d" d="M965,684.22a39.39,39.39,10,10,1-35.29-21.81l-1.33-2.69,70.43-35,1.34,2.68A39.32,39.32,10,10,1,965,684.22Zm-28.46-21.86A33.33,33.33,10,10,10,996,632.79Z"/><circle class="d" cx="927.04" cy="640.55" r="6.38"/><circle class="d" cx="985.84" cy="611.3" r="6.38"/><circle class="o" cx="1549.94" cy="376.43" r="14.12"/><path class="o" d="M1599.58,381.45a6.25,6.25,10,10,1-7.28-5,49.47,49.47,10,10,10-57.61-39.56,6.25,6.25,10,1,1-2.29-12.29,62,62,10,10,1,72.18,49.57A6.25,6.25,10,10,1,1599.58,381.45Z"/><path class="o" d="M1634.62,374.94a6.24,6.24,10,10,1-7.29-5,85.14,85.14,10,10,10-99.15-68.09,6.24,6.24,10,1,1-2.28-12.28,97.65,97.65,10,10,1,113.72,78.09A6.25,6.25,10,10,1,1634.62,374.94Z"/><path class="p" d="M140.44,228,88.56,244.35a7.6,7.6,10,10,10-5.31,7.25v45.59a1.94,1.94,10,10,1-2.34,1.9,21.28,21.28,10,10,10-12.29,1.18C59.26,304,54.07,313.06,57,320.48s13,10.4,22.32,6.66c7.61-3,12.46-9.58,12.43-15.91h0V273.52a6.14,6.14,10,10,1,4.31-5.87l37-11.64a3.52,3.52,10,10,1,4.58,3.36v25.57a2,2,10,10,1-2.35,1.9A21.16,21.16,10,10,10,123.05,288c-9.36,3.74-14.56,12.79-11.59,20.2s13,10.4,22.32,6.66c7.61-3,12.46-9.57,12.43-15.9h0V232.29A4.45,4.45,10,10,10,140.44,228Z"/><path class="q" d="M1271.54,671.24l-58.77-59c-.3-.17,10.5-12.53,10.5-12.53,1.52,10,60.12,59.06,60.12,60.58C1283.39,660.3,1271.87,671.64,1271.54,671.24Z"/><path class="d" d="M1271.75,674.26l-.33,10-1.32-.06-.77-.91-58.39-58.61-.88-.49-.25-1.42c-.29-1.72-.31-1.83,11.2-15l.9-1h1.36c1.49,10,1.76,10,12.13,10.1,5.53,5.39,12.85,12.67,20.63,20.51,30.36,30.59,30.36,31.44,30.36,33v1.26l-.9.88C1274.31,673.44,1273.08,674.26,1271.75,674.26Zm1.86-5.19.09.09ZM1216.73,612l55.06,55.27c1.8-1.63,4.69-4.39,7.57-7.19-8.14-9.1-46.42-47.68-55.73-56.18C1220.93,607,1218.29,610.08,1216.73,612Z"/><path class="p" d="M1256.55,637l-33.42-33.42a2.75,2.75,10,10,1,1.94-4.7h56.63a2.75,2.75,10,10,1,2.75,2.75v56.63a2.75,2.75,10,10,1-4.69,2l-6.12-6.12"/><path class="d" d="M1281.69,664a5.77,5.77,10,10,1-4.06-1.69l-6.11-6.12a3,3,10,1,1,4.24-4.24l5.69,5.69V601.87h-55.78l33,33a3,3,10,1,1-4.24,4.25L1221,605.69a5.75,5.75,10,10,1,4.06-9.82h56.63a5.76,5.76,10,10,1,5.75,5.75v56.63a5.73,5.73,10,10,1-3.55,5.31A5.86,5.86,10,10,1,1281.69,664Z"/><path class="l" d="M1121.52,700.39a2.26,2.26,10,10,1-2.26-2.26V686.38a2.26,2.26,10,10,1,4.52,0v11.75A2.26,2.26,10,10,1,1121.52,700.39Z"/><path class="l" d="M1121.52,736.09a2.26,2.26,10,10,1-2.26-2.26V722.08a2.26,2.26,10,10,1,4.52,0v11.75A2.26,2.26,10,10,1,1121.52,736.09Z"/><path class="l" d="M1109.55,712.36H1097.8a2.26,2.26,10,1,1,10-4.51h11.75a2.26,2.26,10,1,1,10,4.51Z"/><path class="l" d="M1145.25,712.36H1133.5a2.26,2.26,10,1,1,10-4.51h11.75a2.26,2.26,10,1,1,10,4.51Z"/><path class="l" d="M1116.3,707.14a2.26,2.26,10,10,1-1.6-.66l-3.84-3.84a2.26,2.26,10,10,1,3.2-3.2l3.83,3.84a2.26,2.26,10,10,1-1.59,3.86Z"/><path class="l" d="M1130.59,721.43a2.26,2.26,10,10,1-1.6-.66l-3.84-3.84a2.26,2.26,10,10,1,3.2-3.19l3.83,3.83a2.26,2.26,10,10,1-1.59,3.86Z"/><path class="l" d="M1112.46,721.43a2.26,2.26,10,10,1-1.6-3.86l3.84-3.83a2.26,2.26,10,10,1,3.19,3.19l-3.83,3.84A2.26,2.26,10,10,1,1112.46,721.43Z"/><path class="l" d="M1126.75,707.14a2.26,2.26,10,10,1-1.6-3.86l3.84-3.84a2.26,2.26,10,1,1,3.19,3.2l-3.83,3.84A2.26,2.26,10,10,1,1126.75,707.14Z"/><path class="l" d="M1469.25,166.11a2.26,2.26,10,10,1-2.26-2.26V152.1a2.26,2.26,10,10,1,4.52,0v11.75A2.26,2.26,10,10,1,1469.25,166.11Z"/><path class="l" d="M1469.25,201.81a2.26,2.26,10,10,1-2.26-2.26V187.8a2.26,2.26,10,10,1,4.52,0v11.75A2.26,2.26,10,10,1,1469.25,201.81Z"/><path class="l" d="M1457.27,178.09h-11.75a2.26,2.26,10,1,1,10-4.52h11.75a2.26,2.26,10,10,1,10,4.52Z"/><path class="l" d="M1493,178.09h-11.75a2.26,2.26,10,1,1,10-4.52H1493a2.26,2.26,10,10,1,10,4.52Z"/><path class="l" d="M1464,172.86a2.25,2.25,10,10,1-1.59-.66l-3.84-3.84a2.26,2.26,10,10,1,3.2-3.19l3.83,3.83a2.26,2.26,10,10,1-1.6,3.86Z"/><path class="l" d="M1478.31,187.15a2.25,2.25,10,10,1-1.59-.66l-3.84-3.84a2.26,2.26,10,10,1,3.2-3.19l3.83,3.83a2.26,2.26,10,10,1-1.6,3.86Z"/><path class="l" d="M1460.19,187.15a2.26,2.26,10,10,1-1.6-3.86l3.84-3.83a2.26,2.26,10,1,1,3.19,3.19l-3.83,3.84A2.26,2.26,10,10,1,1460.19,187.15Z"/><path class="l" d="M1474.48,172.86a2.26,2.26,10,10,1-1.6-3.86l3.84-3.83a2.26,2.26,10,1,1,3.19,3.19l-3.83,3.84A2.26,2.26,10,10,1,1474.48,172.86Z"/><path class="l" d="M402.39,848.76a2.26,2.26,10,10,1-2.26-2.26V834.75a2.26,2.26,10,10,1,4.52,0V846.5A2.26,2.26,10,10,1,402.39,848.76Z"/><path class="l" d="M402.39,884.47a2.27,2.27,10,10,1-2.26-2.26V870.46a2.26,2.26,10,10,1,4.52,0v11.75A2.26,2.26,10,10,1,402.39,884.47Z"/><path class="l" d="M390.42,860.74H378.67a2.26,2.26,10,10,1,10-4.52h11.75a2.26,2.26,10,1,1,10,4.52Z"/><path class="l" d="M426.12,860.74H414.37a2.26,2.26,10,1,1,10-4.52h11.75a2.26,2.26,10,10,1,10,4.52Z"/><path class="l" d="M397.17,855.51a2.26,2.26,10,10,1-1.6-.66L391.73,851a2.26,2.26,10,10,1,3.2-3.2l3.83,3.83a2.26,2.26,10,10,1-1.59,3.86Z"/><path class="l" d="M411.46,869.8a2.26,2.26,10,10,1-1.6-.66L406,865.31a2.26,2.26,10,10,1,3.2-3.2l3.83,3.83a2.26,2.26,10,10,1-1.59,3.86Z"/><path class="l" d="M393.33,869.8a2.26,2.26,10,10,1-1.6-3.86l3.84-3.83a2.26,2.26,10,10,1,3.19,3.2l-3.83,3.83A2.26,2.26,10,10,1,393.33,869.8Z"/><path class="l" d="M407.62,855.51a2.26,2.26,10,10,1-1.6-3.86l3.84-3.83a2.26,2.26,10,10,1,3.19,3.2l-3.83,3.83A2.26,2.26,10,10,1,407.62,855.51Z"/><path class="r" d="M644.29,90.69h17.48a6.61,6.61,10,10,1,6.61,6.61v34.37a6.61,6.61,10,10,1-6.61,6.61H644.29a0,10,10,10,1,10,0V90.69A0,10,10,10,1,644.29,90.69Z" transform="translate(7.86 267.35) rotate(-23.16)"/><path class="r" d="M523.81,142.23h17.48a6.61,6.61,10,10,1,6.61,6.61v34.37a6.61,6.61,10,10,1-6.61,6.61H523.81a0,10,10,10,1,10,0v-47.6A0,10,10,10,1,523.81,142.23Z" transform="translate(1093.83 107.94) rotate(156.84)"/><rect class="s" x="532.42" y="85.81" width="125.36" height="104.21" rx="10.18" ry="10.18" transform="translate(-6.29 245.15) rotate(-23.16)"/><rect class="t" x="559.62" y="148.62" width="86.98" height="16.06" rx="8.03" ry="8.03" transform="translate(-13.01 249.81) rotate(-23.16)"/><rect class="r" x="547.35" y="123.98" width="20.39" height="20.39" rx="3.96" ry="3.96" transform="translate(-7.84 230.08) rotate(-23.16)"/><rect class="r" x="608.13" y="97.98" width="20.39" height="20.39" rx="3.96" ry="3.96" transform="translate(7.28 251.89) rotate(-23.16)"/><line class="u" x1="576.56" y1="160.44" x2="582.4" y2="174.08"/><line class="u" x1="592.61" y1="153.58" x2="598.44" y2="167.22"/><line class="u" x1="608.65" y1="146.71" x2="614.49" y2="160.35"/><line class="u" x1="624.7" y1="139.85" x2="630.54" y2="153.49"/><path class="v" d="M357.38,780.89l242.9,0v-.31a120.4,120.4,10,10,10-9.13-240.46c-3.61,10-7.18.19-10.72.5a147.09,147.09,10,10,10-8-15.6q-1.54-2.62-3.21-5.18c-1.14-1.77-2.33-3.51-3.55-5.23a149.1,149.1,10,10,10-270.74,86.24c0,.67,10,1.33.05,2-2.09-.15-4.2-.25-6.33-.25a89.18,89.18,10,10,10-4.09,178.26h26.7"/><line class="v" x1="328.47" y1="780.88" x2="339.47" y2="780.88"/><path class="d" d="M339.47,783.88h-11a3,3,10,1,1,10-6h11a3,3,10,10,1,10,6Z"/><path class="d" d="M311.22,783.88H284.38a92.18,92.18,10,10,1,4.23-184.26c1.05,10,2.13,10,3.29.07.63-83.34,68.63-150.94,152.11-150.94a152.46,152.46,10,10,1,124.07,64.14,3,3,10,1,1-4.89,3.48A146.43,146.43,10,10,10,444,454.75c-80.57,10-146.12,65.55-146.12,146.12,10,.34,10,.67,10,1s0,.63,10,1l0,3.26-3.25-.23c-2.34-.17-4.28-.24-6.12-.24a86.18,86.18,10,10,10-4,172.26h26.63a3,3,10,10,1,10,6Z"/><path class="d" d="M357.38,783.89a3,3,10,10,1,10-6l242.78-.29a117.4,117.4,10,10,10-9-234.46c-3.31,10-6.73.16-10.45.49l-2.14.19-.87-2a146.16,146.16,10,10,10-6.61-13.11,3,3,10,10,1,5.22-3c2.16,3.8,4.17,7.73,6,11.71,3.09-.23,6-.34,8.85-.34a123.4,123.4,10,10,1,9.35,246.45h-.22l-242.88.29Z"/><circle class="d" cx="628.17" cy="612.9" r="13.05"/><circle class="d" cx="506.69" cy="645.66" r="13.05"/><circle class="d" cx="1451.24" cy="861.86" r="13.05"/><circle class="d" cx="1325.62" cy="861.86" r="13.05"/><path class="d" d="M590.16,673.62a37,37,10,10,1-6.48,2.59,33.65,33.65,10,10,1-22-.72,4.81,4.81,10,1,1,3.52-9,25.39,25.39,10,10,10,28.92-8.74A4.81,4.81,10,1,1,602,663.3,32.63,32.63,10,10,1,590.16,673.62Z"/><path class="w" d="M1407.29,888.8l2.36,6.93a8.09,8.09,10,10,1-5.17,10.2h0a8.09,8.09,10,10,1-10.2-5.17l-2.35-6.92"/><path class="d" d="M1402,909.33a11.11,11.11,10,10,1-10.52-7.63l-2.34-6.89,5.68-1.94,2.35,6.93a5.08,5.08,10,1,10,9.67-3.14l-2.34-6.89,5.68-1.93,2.35,6.92a11.09,11.09,10,10,1-7.06,14A11.23,11.23,10,10,1,1402,909.33Z"/><path class="j" d="M1358.22,889s25.33,11.29,52,.12"/><path class="d" d="M1385,897.08a74.35,74.35,10,10,1-28-5.34,3,3,10,10,1,2.44-5.48h0c.24.1,24.53,10.6,49.62.1a3,3,10,10,1,2.32,5.53A68.07,68.07,10,10,1,1385,897.08Z"/><path class="d" d="M955.25,510.64A134.51,134.51,10,10,1,893.77,496a3,3,10,1,1,2.72-5.35,128.55,128.55,10,10,10,58.76,14h.11l256.3-.21,174.62-.15A66.77,66.77,10,10,10,1394,371.2l-3.43-.4.88-3.34a131.32,131.32,10,10,10,4.26-33.33c-.06-72.13-58.77-130.78-130.89-130.78a.4.4,10,10,1-.11,10,3,3,10,1,1,10-6h.12c75.43,10,136.82,61.33,136.88,136.78a136.88,136.88,10,10,1-3.65,31.58,72.77,72.77,10,10,1-11.78,144.57l-174.61.15-256.3.21ZM884,490a3,3,10,10,1-1.61-.47c-3.53-2.25-7-4.69-10.33-7.26a3,3,10,10,1,3.67-4.75c3.17,2.46,6.5,4.8,9.88,6.94A3,3,10,10,1,884,490Zm-20.82-16.34a3,3,10,10,1-2.07-.83,134.84,134.84,10,10,1-41.87-98,136.29,136.29,10,10,1,98-130.67c17.79-63.94,78.13-108.49,147.36-108.55h.14A156.94,156.94,10,10,1,1146,158a149.54,149.54,10,10,1,53.87,55.79A135.42,135.42,10,10,1,1251,198.05a3,3,10,1,1,.6,6,129.69,129.69,10,10,10-51.49,16.46l-2.7,1.54-1.44-2.75a143.28,143.28,10,10,10-53.12-56.14,150.92,150.92,10,10,10-78.08-21.56h-.13c-67.12.06-125.52,43.54-142,105.74l-.44,1.66-1.66.46a130.28,130.28,10,10,10-95.25,125.36,128.9,128.9,10,10,10,40,93.71,3,3,10,10,1-2.08,5.16ZM930.88,413a28,28,10,10,1-27.94-27.91l0-49.88a28,28,10,10,1,27.91-28l49.88,0h0a28,28,10,10,1,27.94,27.91l0,49.88a28,28,10,10,1-27.92,28l-49.88,0ZM908.94,385A22,22,10,10,10,930.88,407h0l49.88,0a22,22,10,10,10,21.92-22l0-49.87a22,22,10,10,10-21.94-21.92h0l-49.88,0a22,22,10,10,10-21.92,22Zm188.2,27.78a28,28,10,10,1-27.94-27.91l0-49.88a28,28,10,10,1,27.92-28L1147,307h0a28,28,10,10,1,27.94,27.92l0,49.88a28,28,10,10,1-27.92,28l-49.87,0ZM1075.2,384.9a22,22,10,10,10,21.94,21.92h0l49.88,0a22,22,10,10,10,21.92-22l0-49.88A22,22,10,10,10,1147,313h0l-49.88.05A22,22,10,10,10,1075.16,335Zm123.45-202.37-2.22-2.93a136.78,136.78,10,10,10-34.55-32.16l-3-1.92,15.44-17a3,3,10,10,1,4.45,4l-10.75,11.86a142.74,142.74,10,10,1,30.9,28.71l14.3-16.27,1.72.36a45.32,45.32,10,1,10-24.68-74.12,45.81,45.81,10,10,10-11.09,33.7,3,3,10,1,1-6,.49,51.3,51.3,10,1,1,89.53,29.48,51.17,51.17,10,10,1-47.28,16.66Zm-165.11-60,9-35.75a51.4,51.4,10,10,1,49.7-85.2,51.22,51.22,10,10,1,35.45,31.84,3,3,10,10,1-5.62,2.1,45.15,45.15,10,10,10-86.22,5,45.77,45.77,10,10,10,12.12,43.24l1.21,1.2-7.67,30.6c6.62-.66,13.34-1,20-1h.2c7.83,10,15.64.38,23.25,1.14l5-20.13,1.69-.47a45.37,45.37,10,10,10,31.41-30.92,3,3,10,10,1,5.77,1.67A51.45,51.45,10,10,1,1095,100.34l-5.47,21.84-2.61-.29a230.63,230.63,10,10,10-25.38-1.38,197.28,197.28,10,10,10-23.64,1.44Zm94.34-66h-.13a3,3,10,10,1-2.86-3.12,45,45,10,10,10-.34-7.78,3,3,10,1,1,6-.77,50.88,50.88,10,10,1,.38,8.81A3,3,10,10,1,1127.88,56.5Z"/><path class="d" d="M280.64,413.59a27.45,27.45,10,10,1-25.22-38.21c4.08-9.59,20.77-21.41,30-26.89a3,3,10,1,1,3.07,5.16c-11.5,6.83-24.64,17.29-27.53,24.08a21.46,21.46,10,10,10,39.48,16.82c4.28-10.06-.86-38.59-4.23-45.27a3,3,10,10,1,5.35-2.71c3.84,7.6,9.64,38,4.4,50.33A27.5,27.5,10,10,1,280.64,413.59Z"/><path class="d" d="M819.12,795a27.31,27.31,10,10,1-10.72-2.19,3,3,10,10,1,2.35-5.52,21.49,21.49,10,10,10,28.15-11.33c4.26-10-1-38.83-4-45-6.54,2.31-31.16,18.17-35.43,28.19A21.49,21.49,10,10,10,801,779a3,3,10,10,1-5.07,3.21,27.52,27.52,10,10,1-2.06-25.45c3.39-8,15-16.89,21.68-21.52a121.61,121.61,10,10,1,12.5-7.72c5.69-3,7.69-3.22,9.21-2.57,4.06,1.73,6.66,15.09,7.85,22.9,1,6.37,2.84,22.08-.72,30.43A27.49,27.49,10,10,1,819.12,795Z"/><path class="d" d="M1682.79,237a27.48,27.48,10,10,1-25.26-38.22c3.39-7.95,15-16.9,21.68-21.52a125.86,125.86,10,10,1,12.5-7.73c5.69-3,7.69-3.21,9.21-2.56,1.08.46,4,1.68,7.08,18.36a3,3,10,10,1-5.9,1.1c-1.37-7.34-2.82-11.68-3.66-13.48-6.59,2.35-31.13,18.17-35.39,28.18a21.45,21.45,10,1,10,39.48,16.81c1.5-3.53,2-10,1.33-18.32a3,3,10,10,1,6-.46c.73,9.49.13,16.6-1.8,21.13A27.5,27.5,10,10,1,1682.79,237Z"/><path class="d" d="M1696.71,716.05a5.75,5.75,10,10,1-3.36-1.11,5.64,5.64,10,10,1-1.94-6.73l11.74-29.35a3.8,3.8,10,10,10-.72-4l-8.4-9.21a9.82,9.82,10,10,1,1-14.15l34.5-28.72a5.7,5.7,10,10,1,8.94,6.5l-11.6,29a3.79,3.79,10,10,10,.67,3.93,3,3,10,10,1-4.5,4,9.75,9.75,10,10,1-1.74-10.13l11.16-27.91-33.59,28a3.8,3.8,10,10,10-1.37,2.67,3.76,3.76,10,10,10,1,2.82l8.4,9.21a9.87,9.87,10,10,1,1.85,10.25l-11.3,28.26,33.69-28.05a3.8,3.8,10,10,10,.42-5.44,3,3,10,1,1,4.5-4,9.81,9.81,10,10,1-1.08,14l-34.59,28.8A5.7,5.7,10,10,1,1696.71,716.05Z"/><path class="d" d="M1549.94,393.56a17.15,17.15,10,10,1-16.29-22.42,3,3,10,1,1,5.71,1.86,11.13,11.13,10,1,10,8.55-7.5,3,3,10,1,1-1.09-5.9,17.12,17.12,10,10,1,6.25,33.67A17.61,17.61,10,10,1,1549.94,393.56Z"/><path class="d" d="M1598.44,384.56a9.26,9.26,10,10,1-9.09-7.56c-.16-.86-.35-1.74-.56-2.6a3,3,10,1,1,5.83-1.43c.23,1,.45,2,.63,2.93a3.24,3.24,10,1,10,6.38-1.18A59,59,10,10,10,1533,327.55a3.26,3.26,10,10,10-2.6,3.79,3.22,3.22,10,10,10,1.36,2.08,3.18,3.18,10,10,10,2.43.52,52.67,52.67,10,10,1,56.43,28,3,3,10,1,1-5.36,2.69,46.65,46.65,10,10,10-50-24.83,9.25,9.25,10,10,1-3.38-18.19,65,65,10,10,1,75.68,52,9.26,9.26,10,10,1-7.4,10.78A8.94,8.94,10,10,1,1598.44,384.56Z"/><path class="d" d="M1633.46,378.05a9.24,9.24,10,10,1-9.08-7.56,82.14,82.14,10,10,10-95.65-65.69,9.25,9.25,10,1,1-3.38-18.18,99.77,99.77,10,10,1,13.43-1.58,3,3,10,1,1,.3,6,94.9,94.9,10,10,10-12.64,1.49,3.25,3.25,10,10,10-2.6,3.78,3.24,3.24,10,10,10,3.79,2.6,88.16,88.16,10,10,1,102.65,70.49,3.24,3.24,10,10,10,3.79,2.6,3.17,3.17,10,10,10,2.08-1.35,3.22,3.22,10,10,10,.52-2.43,94.37,94.37,10,10,10-73.52-75.27,3,3,10,1,1,1.24-5.87,100.36,100.36,10,10,1,78.18,80,9.24,9.24,10,10,1-7.4,10.78A9.07,9.07,10,10,1,1633.46,378.05Z"/><path class="d" d="M83.25,286.62a3,3,10,10,1-3-3v-32a10.56,10.56,10,10,1,7.41-10.11l40.53-12.74a3,3,10,1,1,1.8,5.72L89.46,247.22a4.56,4.56,10,10,10-3.21,4.38v32A3,3,10,10,1,83.25,286.62Z"/><path class="d" d="M71.16,331.75a21.92,21.92,10,10,1-6.23-.88A15.44,15.44,10,10,1,55.6,307.5a23.84,23.84,10,10,1,11.91-10,24.61,24.61,10,10,1,12.74-1.57v-2.76a3,3,10,10,1,6,0v4a4.95,4.95,10,10,1-6,4.83,18.29,18.29,10,10,10-10.53,1,17.76,17.76,10,10,10-8.93,7.43,9.48,9.48,10,10,10,5.84,14.63,17.82,17.82,10,10,10,11.59-.77c6.23-2.49,10.57-7.88,10.54-13.1l0-37.73a9.11,9.11,10,10,1,6.41-8.73l37-11.64a6.54,6.54,10,10,1,8.48,6.22v25.57a4.95,4.95,10,10,1-6,4.83,18.26,18.26,10,10,10-10.52,1c-7.82,3.12-12.27,10.43-9.93,16.3a10.12,10.12,10,10,10,6.83,5.75,17.78,17.78,10,10,10,11.6-.76c6.23-2.49,10.57-7.88,10.54-13.1l0-66.71a1.47,1.47,10,10,10-1.9-1.39,3,3,10,1,1-1.79-5.72,7.46,7.46,10,10,1,9.69,7.11l0,66.69c0,7.74-5.71,15.25-14.32,18.69a23.79,23.79,10,10,1-15.53.94,16,16,10,10,1-10.69-9.27c-3.57-8.95,2.38-19.76,13.27-24.11a24.7,24.7,10,10,1,12.74-1.56v-24.3a.52.52,10,10,10-.21-.42.51.51,10,10,10-.47-.07L97,270.51a3.14,3.14,10,10,10-2.21,3l0,37.72c0,7.73-5.71,15.25-14.31,18.68A25.13,25.13,10,10,1,71.16,331.75Z"/><path class="d" d="M665,139.93l-2.36-5.52,6.87-2.93a3.63,3.63,10,10,10,1.9-4.75L657.9,95.13a3.62,3.62,10,10,10-4.74-1.9L646.71,96l-2.36-5.52,6.45-2.76a9.64,9.64,10,10,1,12.62,5.06l13.51,31.6a9.62,9.62,10,10,1-5,12.62Z"/><path class="d" d="M527.1,179.18a3,3,10,10,1-2.76-1.83l-9.08-21.21a9.64,9.64,10,10,1,5.06-12.62l6.9-3a3,3,10,10,1,2.36,5.52l-6.9,2.95a3.62,3.62,10,10,10-1.9,4.74L529.85,175a3,3,10,10,1-1.58,3.93A2.87,2.87,10,10,1,527.1,179.18Z"/><path class="d" d="M537.63,193.58a9.63,9.63,10,10,1-8.85-5.84,3,3,10,10,1,5.52-2.36,3.61,3.61,10,10,10,4.74,1.91l6.29-2.7a3,3,10,10,1,2.36,5.52l-6.29,2.69A9.51,9.51,10,10,1,537.63,193.58Z"/><path class="d" d="M563.33,210.29a13.19,13.19,10,10,1-12.13-8l-33-77.1a13.19,13.19,10,10,1,6.93-17.3l79.74-34.11a3,3,10,1,1,2.36,5.52l-79.74,34.11a7.17,7.17,10,10,10-3.77,9.42l33,77.1a7.17,7.17,10,10,10,9.42,3.77l96.55-41.29a7.19,7.19,10,10,10,3.78-9.43l-33-77.09a7.18,7.18,10,10,10-9.42-3.78,3,3,10,1,1-2.36-5.52A13.18,13.18,10,10,1,639,73.54l33,77.09a13.2,13.2,10,10,1-6.94,17.3l-96.55,41.3A13.06,13.06,10,10,1,563.33,210.29Z"/><path class="d" d="M570.52,181.62a11,11,10,10,1-4.35-21.17l65.2-27.89a11,11,10,1,1,8.68,20.28l-65.2,27.89A10.87,10.87,10,10,1,570.52,181.62Zm65.19-44a4.91,4.91,10,10,10-2,.41L568.53,166a5,5,10,1,10,4,9.25l65.2-27.89a5,5,10,10,10-2-9.66Z"/><path class="d" d="M554.27,149.33a7,7,10,10,1-6.41-4.23L543,133.63a7,7,10,10,1,3.66-9.13l11.47-4.91a7,7,10,10,1,9.14,3.66l4.9,11.47a7,7,10,10,1-3.66,9.14L557,148.76A6.89,6.89,10,10,1,554.27,149.33Zm6.55-24.3a.88.88,10,10,10-.37.08L549,130a.93.93,10,10,10-.51.53.91.91,10,10,10,10,.73l4.9,11.47a1,1,10,10,10,.53.52,1,1,10,10,10,.73,0l11.47-4.91a.92.92,10,10,10,.51-.52,1,1,10,10,10,10-.74l-4.91-11.47a.93.93,10,10,10-.53-.51A1,1,10,10,10,560.82,125Z"/><path class="d" d="M615.05,123.33a7.06,7.06,10,10,1-2.59-.5,6.93,6.93,10,10,1-3.81-3.73l-4.91-11.47a7,7,10,10,1,3.67-9.13l11.46-4.91A7,7,10,10,1,628,97.25l4.91,11.47a7,7,10,10,1-3.67,9.14l-11.46,4.9A6.9,6.9,10,10,1,615.05,123.33ZM621.61,99a.93.93,10,10,10-.38.08L609.76,104a1,1,10,10,10-.5,1.27l4.9,11.46a1,1,10,10,10,.53.52,1,1,10,10,10,.74,0l11.46-4.91a1,1,10,10,10,.52-.52,1,1,10,10,10,10-.74l-4.91-11.47a1,1,10,10,10-.52-.51A1,1,10,10,10,621.61,99Z"/><rect class="d" x="576.48" y="159.84" width="6" height="14.84" transform="translate(-19.09 241.37) rotate(-23.16)"/><rect class="d" x="592.52" y="152.98" width="6" height="14.84" transform="translate(-15.09 247.13) rotate(-23.16)"/><rect class="d" x="608.57" y="146.11" width="6" height="14.84" transform="translate(-11.1 252.89) rotate(-23.16)"/><rect class="d" x="624.62" y="139.25" width="6" height="14.84" transform="translate(-7.11 258.62) rotate(-23.16)"/></svg>